<?xml version="1.0" encoding="UTF-8"?>
<svg viewBox="0 0 937.41797 581.09985" xmlns="http://www.w3.org/2000/svg" xmlns:xlink="http://www.w3.org/1999/xlink">
 <defs>
  <filter id="d">
   <feGaussianBlur stdDeviation="9.0649"/>
  </filter>
  <filter id="ab">
   <feGaussianBlur stdDeviation=".9266"/>
  </filter>
  <filter id="ax">
   <feGaussianBlur stdDeviation="1.8445"/>
  </filter>
  <filter id="r">
   <feGaussianBlur stdDeviation="1.1417"/>
  </filter>
  <filter id="q">
   <feGaussianBlur stdDeviation=".4082"/>
  </filter>
  <filter id="m">
   <feGaussianBlur stdDeviation=".6461"/>
  </filter>
  <filter id="l">
   <feGaussianBlur stdDeviation=".7032"/>
  </filter>
  <filter id="ay" x="-.17918" y="-.03603" width="1.3584" height="1.0721">
   <feGaussianBlur stdDeviation="3.2796"/>
  </filter>
  <linearGradient id="k" x1="3506.8" x2="3767.6" y1="1774.9" y2="1777.1" gradientTransform="matrix(.35966 0 0 .32664 1117.7 -436.66)" gradientUnits="userSpaceOnUse">
   <stop stop-color="#e15f29" offset="0"/>
   <stop stop-color="#e15f29" stop-opacity="0" offset="1"/>
  </linearGradient>
  <linearGradient id="j" x1="2424.7" x2="2342.3" y1="128.35" y2="126.71" gradientUnits="userSpaceOnUse">
   <stop stop-color="#500" offset="0"/>
   <stop stop-color="#500" stop-opacity="0" offset="1"/>
  </linearGradient>
  <linearGradient id="a">
   <stop stop-color="#fff" offset="0"/>
   <stop stop-color="#fff" stop-opacity="0" offset="1"/>
  </linearGradient>
  <linearGradient id="s">
   <stop stop-color="#800000" offset="0"/>
   <stop stop-color="#800000" stop-opacity="0" offset="1"/>
  </linearGradient>
  <linearGradient id="u">
   <stop stop-color="#ff0" stop-opacity=".5088" offset="0"/>
   <stop stop-color="#ff0" stop-opacity="0" offset="1"/>
  </linearGradient>
  <linearGradient id="f">
   <stop stop-color="#ff0" offset="0"/>
   <stop stop-color="#ff0" stop-opacity="0" offset="1"/>
  </linearGradient>
  <linearGradient id="w">
   <stop stop-color="#9ab7ca" offset="0"/>
   <stop stop-color="#9ab7ca" stop-opacity="0" offset="1"/>
  </linearGradient>
  <linearGradient id="v">
   <stop stop-color="#f00" offset="0"/>
   <stop stop-color="#f00" stop-opacity="0" offset="1"/>
  </linearGradient>
  <linearGradient id="t">
   <stop stop-color="#241c1c" offset="0"/>
   <stop stop-color="#241c1c" stop-opacity="0" offset="1"/>
  </linearGradient>
  <linearGradient id="aj" x1="3727.5" x2="3743.1" y1="1162.1" y2="1443.4" gradientUnits="userSpaceOnUse">
   <stop stop-color="#fdffde" offset="0"/>
   <stop stop-color="#fdffde" stop-opacity="0" offset="1"/>
  </linearGradient>
  <linearGradient id="e">
   <stop stop-color="#0f0" offset="0"/>
   <stop stop-color="#0f0" stop-opacity="0" offset="1"/>
  </linearGradient>
  <linearGradient id="i" x1="24.962" x2="272.45" y1="10.269" y2="54.463" gradientUnits="userSpaceOnUse" xlink:href="#a"/>
  <linearGradient id="h" x1="2289.3" x2="2412.9" y1="55.6" y2="99.681" gradientUnits="userSpaceOnUse" xlink:href="#a"/>
  <linearGradient id="g" x1="3346.9" x2="3687.5" y1="1558.6" y2="1705.5" gradientUnits="userSpaceOnUse" xlink:href="#s"/>
  <linearGradient id="o" x1="3579.8" x2="3559.4" y1="1541.6" y2="1411.2" gradientTransform="matrix(.35127 0 0 .20422 726.28 -204.89)" gradientUnits="userSpaceOnUse" xlink:href="#a"/>
  <linearGradient id="ao" x1="2828.5" x2="2825.4" y1="1531.3" y2="1471.9" gradientUnits="userSpaceOnUse" xlink:href="#w"/>
  <linearGradient id="an" x1="2828.5" x2="2826.2" y1="1506.3" y2="1488.3" gradientUnits="userSpaceOnUse" xlink:href="#w"/>
  <linearGradient id="am" x1="2830.9" x2="2819.5" y1="1248.8" y2="1476.6" gradientTransform="matrix(.65918 0 0 1 961.63 0)" gradientUnits="userSpaceOnUse" xlink:href="#f"/>
  <linearGradient id="al" x1="1717.6" x2="1716.9" y1="88.508" y2="77.656" gradientUnits="userSpaceOnUse" xlink:href="#t"/>
  <linearGradient id="ak" x1="3579.8" x2="3559.4" y1="1541.6" y2="1411.2" gradientTransform="matrix(.35127 0 0 .20422 468.77 -204.55)" gradientUnits="userSpaceOnUse" xlink:href="#a"/>
  <linearGradient id="ai" x1="3748.9" x2="3747" y1="1403.2" y2="1373.9" gradientUnits="userSpaceOnUse" xlink:href="#t"/>
  <linearGradient id="ah" x1="3979.7" x2="3978.1" y1="1527.4" y2="1346.1" gradientUnits="userSpaceOnUse" xlink:href="#s"/>
  <linearGradient id="ag" x1="3752.5" x2="3747" y1="1487.9" y2="1323.9" gradientUnits="userSpaceOnUse" xlink:href="#f"/>
  <linearGradient id="af" x1="3978.1" x2="3971.9" y1="1718" y2="1300.8" gradientTransform="matrix(.75946 0 0 .98532 719.18 -59.272)" gradientUnits="userSpaceOnUse" xlink:href="#f"/>
  <linearGradient id="p" x1="1183.9" x2="1136.4" y1="5808.7" y2="5864.7" gradientTransform="matrix(.97042 0 0 .94649 32.953 315.93)" gradientUnits="userSpaceOnUse" xlink:href="#a"/>
  <linearGradient id="y" x1="1275.3" x2="1263.2" y1="5881.4" y2="5931.9" gradientTransform="matrix(1.2095 -1.2095 1.1723 1.1723 -5714.4 -5898)" gradientUnits="userSpaceOnUse" xlink:href="#e"/>
  <linearGradient id="x" x1="1267.1" x2="1262.1" y1="5879.5" y2="5936.6" gradientTransform="matrix(1.2095 -1.2095 1.2095 1.2095 -5936.4 -6119.9)" gradientUnits="userSpaceOnUse" xlink:href="#a"/>
  <linearGradient id="aq" x1="1317.8" x2="1370.9" y1="-336.76" y2="-312.57" gradientUnits="userSpaceOnUse" xlink:href="#e"/>
  <linearGradient id="ap" x1="1301.7" x2="1381.5" y1="-356.8" y2="-296.62" gradientUnits="userSpaceOnUse" xlink:href="#a"/>
  <linearGradient id="c" x1="1251.6" x2="1239" y1="5806.6" y2="5828.9" gradientUnits="userSpaceOnUse" xlink:href="#a"/>
  <linearGradient id="aa" x1="1152.1" x2="1183.9" y1="5958.7" y2="5972.8" gradientTransform="matrix(.57074 -1.5681 1.6073 .58501 -7510.1 -1918.5)" gradientUnits="userSpaceOnUse" xlink:href="#e"/>
  <linearGradient id="z" x1="1143.6" x2="1190.7" y1="5945.9" y2="5981.6" gradientTransform="matrix(.57868 -1.5899 1.5834 .57631 -7376 -1839.4)" gradientUnits="userSpaceOnUse" xlink:href="#a"/>
  <linearGradient id="aw" x1="1275.3" x2="1263.2" y1="5881.4" y2="5931.9" gradientTransform="matrix(1.5502 -.72287 .70064 1.5025 -3290.4 -8340.2)" gradientUnits="userSpaceOnUse" xlink:href="#e"/>
  <linearGradient id="av" x1="1267.1" x2="1262.1" y1="5879.5" y2="5936.6" gradientTransform="matrix(1.5502 -.72287 .72287 1.5502 -3423.1 -8624.7)" gradientUnits="userSpaceOnUse" xlink:href="#a"/>
  <linearGradient id="au" x1="1152.1" x2="1183.9" y1="5958.7" y2="5972.8" gradientTransform="matrix(1.2783 1.0726 -1.0995 1.3103 7161.5 -9275.5)" gradientUnits="userSpaceOnUse" xlink:href="#e"/>
  <linearGradient id="at" x1="1143.6" x2="1190.7" y1="5945.9" y2="5981.6" gradientTransform="matrix(1.2961 1.0876 -1.0831 1.2908 7041.3 -9176.6)" gradientUnits="userSpaceOnUse" xlink:href="#a"/>
  <linearGradient id="as" x1="1275.3" x2="1263.2" y1="5881.4" y2="5931.9" gradientTransform="matrix(1.6845 .29702 -.28788 1.6327 689.37 -10396)" gradientUnits="userSpaceOnUse" xlink:href="#e"/>
  <linearGradient id="ar" x1="1267.1" x2="1262.1" y1="5879.5" y2="5936.6" gradientTransform="matrix(1.6845 .29702 -.29702 1.6845 743.88 -10705)" gradientUnits="userSpaceOnUse" xlink:href="#a"/>
  <radialGradient id="n" cx="3566.8" cy="1484.6" r="144.74" gradientTransform="matrix(.29579 -.01849 .0052 .05215 917.85 80.052)" gradientUnits="userSpaceOnUse" xlink:href="#u"/>
  <radialGradient id="ae" cx="200.07" cy="91.431" r="174.38" gradientTransform="matrix(.96148 .05347 -.03046 .54782 1491.8 808.52)" gradientUnits="userSpaceOnUse" xlink:href="#f"/>
  <radialGradient id="ad" cx="2823.8" cy="1478.2" r="11.719" gradientTransform="matrix(1.0333 -1.3403e-6 1.4917e-6 1.15 -94.127 -221.75)" gradientUnits="userSpaceOnUse" xlink:href="#v"/>
  <radialGradient id="ac" cx="3566.8" cy="1484.6" r="144.74" gradientTransform="matrix(.29579 -.01849 .0052 .05215 660.34 80.389)" gradientUnits="userSpaceOnUse" xlink:href="#u"/>
  <radialGradient id="b" cx="1242.2" cy="5821.8" r="24.749" gradientTransform="matrix(.81633 -.12244 .14682 .97885 -627.87 275.24)" gradientUnits="userSpaceOnUse" xlink:href="#v"/>
 </defs>
 <g transform="translate(-1975.9 -521.25)">
  <g transform="translate(318.16 647.58)">
   <path d="m2342.8 21.944c42.915 14.026 74.188 11.043 104.47 0v222.63c2.8383 29.284-105.62 27.734-105.97 0z" fill="#2b1100"/>
   <path d="m2343.1 22.046c42.141 12.036 74.47 8.8245 104.21 0.61388v224.37c3.0931 24.855-105.48 24.695-106.5 0z" fill="url(#k)"/>
   <path d="m2345.3 22.046c41.225 12.036 72.851 8.8245 101.95 0.61388v224.37c3.0258 24.855-103.18 24.695-104.18 0z" fill="url(#j)"/>
   <path transform="matrix(.37041 0 0 .37041 2295.6 99.172)" d="m124.45 398.92c2.6042 12.811 17.11 18.252 27.906 22.812 54.236 19.08 113.25 18.567 169.93 13.16 24.444-3.2488 49.728-8.2155 70.445-22.379 6.2264-5.2371 6.8032-13.555 5.7462-21-0.2698-194.57-0.087-389.15-0.1212-583.72-87.388 22.356-180.65 21.725-267.72-1.6875l-6.1874 592.81z" fill="url(#i)" filter="url(#d)"/>
   <path d="m2344 23.668c-0.7639 74.376-1.528 148.75-2.2919 223.13 0.9646 4.8218 6.3378 6.87 10.337 8.5864l0.6135 0.21172c3.9614-3.9638 7.7269-8.4602 11.946-12.033 9.822-8.3171 0-13.3 0-24.112s8.1908-12.475 15.557-19.96-2.4558-10.815-5.7298-20.796-1.6367-15.797 5.7298-21.619 2.4489-16.638-1.6437-44.085 9.0047-22.453 22.919-68.197c1.6321-5.3655 2.4312-10.199 2.5697-14.562-20.182 0.95559-40.515-1.2373-60.007-6.5633z" fill="url(#h)"/>
   <path transform="matrix(.37041 0 0 .38049 1077.9 -549.75)" d="m3411.8 2092.9c2.6042 12.811 17.11 18.252 27.906 22.812 54.236 19.08 113.25 18.567 169.93 13.16 24.444-3.2488 49.728-8.2155 70.445-22.379 6.2264-5.2371 6.8032-13.555 5.7462-21-0.2698-194.57-0.087-389.15-0.1212-583.72-87.388 22.356-180.65 21.725-267.72-1.6875l-6.1874 592.81z" fill="url(#g)" filter="url(#d)" opacity=".4071"/>
  </g>
  <g transform="translate(738.69 578.49)">
   <path d="m2026.8 91.607a52.18 9.822 0 0 1 -104.36 0 52.18 9.822 0 1 1 104.36 0z" fill="#e15f29"/>
   <path d="m2026.8 89.356a52.18 7.5712 0 0 1 -104.36 0 52.18 7.5712 0 1 1 104.36 0z" fill="url(#n)"/>
   <path d="m1974.1247,92.07847c-.3756-.77168-2.0822.0776-2.3941-.72345-.097-.37396 2.5872-1.71753 2.3941-3.32793 .084-.17258 0-.38586 0-.57877s.1327-.44235 0-.57877-.4306.13642-.5634,0c-.018-.0185 0-1.59596 0-1.73631v-1.15754c0-.19291-.1877-.57877 0-.57877s0,.77169 0,.57877v-1.7363c0-.19292-.1327-.44235 0-.57878s.4306.13643.5634,0 0-.38585 0-.57876c.1877,0 .3953.0863.5633,0 .2375-.12202.4445-.33475.5633-.57877 .084-.17258-.1878-.57878 0-.57878s.1877.57878 0,.57878c-.6961,0-.5633-.81165-.5633-1.15754v-1.73631c0-.19291-.1878-.57877 0-.57877s0,.77168 0,.57877c0-.38586-.168-.81242 0-1.15754 .014-.0297 1.6394-.052 1.6899,0 .1328.13642-.084.4062 0,.57877 .1187.24403.4445.33474.5633.57877 .3303.67867-.3343.68693-.5633,1.15754-.084.17254 0,.38586 0,.57877v.57876c0,.19292.1877.57878 0,.57878s0-.77168 0-.57878v1.15755c0,.38586.168.81242 0,1.15754-.084.17253-.4306-.13643-.5633,0s.1327.44234 0,.57876-.4305-.13642-.5633,0 0,.38586 0,.57877v.57877c0,.19292.1877.57877 0,.57877s0-.77168 0-.57877c0,.38586-.1188.7915 0,1.15754 .4836,1.49061 1.1266-.51576 1.1266,1.15754 0,.38586.3755,1.15754 0,1.15754s0-1.5434 0-1.15754c0,.77168.01,1.54347 0,2.31508-.024,1.90499-.3507,2.22221-2.2532,3.47261z" fill="#faf3b8"/>
   <path d="m2024.1 89.908a50.842 8.123 0 0 1 -101.68 0 50.842 8.123 0 1 1 101.68 0z" fill="url(#o)"/>
  </g>
  <g transform="translate(135.95 648.4)">
   <path d="m2342.8 21.944c42.915 14.026 74.188 11.043 104.47 0v222.63c2.8383 29.284-105.62 27.734-105.97 0z" fill="#2b1100"/>
   <path d="m2343.1 22.046c42.141 12.036 74.47 8.8245 104.21 0.61388v224.37c3.0931 24.855-105.48 24.695-106.5 0z" fill="url(#k)"/>
   <path d="m2345.3 22.046c41.225 12.036 72.851 8.8245 101.95 0.61388v224.37c3.0258 24.855-103.18 24.695-104.18 0z" fill="url(#j)"/>
   <path transform="matrix(.37041 0 0 .37041 2295.6 99.172)" d="m124.45 398.92c2.6042 12.811 17.11 18.252 27.906 22.812 54.236 19.08 113.25 18.567 169.93 13.16 24.444-3.2488 49.728-8.2155 70.445-22.379 6.2264-5.2371 6.8032-13.555 5.7462-21-0.2698-194.57-0.087-389.15-0.1212-583.72-87.388 22.356-180.65 21.725-267.72-1.6875l-6.1874 592.81z" fill="url(#i)" filter="url(#d)"/>
   <path d="m2344 23.668c-0.7639 74.376-1.528 148.75-2.2919 223.13 0.9646 4.8218 6.3378 6.87 10.337 8.5864l0.6135 0.21172c3.9614-3.9638 7.7269-8.4602 11.946-12.033 9.822-8.3171 0-13.3 0-24.112s8.1908-12.475 15.557-19.96-2.4558-10.815-5.7298-20.796-1.6367-15.797 5.7298-21.619 2.4489-16.638-1.6437-44.085 9.0047-22.453 22.919-68.197c1.6321-5.3655 2.4312-10.199 2.5697-14.562-20.182 0.95559-40.515-1.2373-60.007-6.5633z" fill="url(#h)"/>
   <path transform="matrix(.37041 0 0 .38049 1077.9 -549.75)" d="m3411.8 2092.9c2.6042 12.811 17.11 18.252 27.906 22.812 54.236 19.08 113.25 18.567 169.93 13.16 24.444-3.2488 49.728-8.2155 70.445-22.379 6.2264-5.2371 6.8032-13.555 5.7462-21-0.2698-194.57-0.087-389.15-0.1212-583.72-87.388 22.356-180.65 21.725-267.72-1.6875l-6.1874 592.81z" fill="url(#g)" filter="url(#d)" opacity=".4071"/>
  </g>
  <g transform="translate(556.49 579.32)">
   <path d="m2026.8 91.607a52.18 9.822 0 0 1 -104.36 0 52.18 9.822 0 1 1 104.36 0z" fill="#e15f29"/>
   <path d="m2026.8 89.356a52.18 7.5712 0 0 1 -104.36 0 52.18 7.5712 0 1 1 104.36 0z" fill="url(#n)"/>
   <path d="m1974.1247,92.07847c-.3756-.77168-2.0822.0776-2.3941-.72345-.097-.37396 2.5872-1.71753 2.3941-3.32793 .084-.17258 0-.38586 0-.57877s.1327-.44235 0-.57877-.4306.13642-.5634,0c-.018-.0185 0-1.59596 0-1.73631v-1.15754c0-.19291-.1877-.57877 0-.57877s0,.77169 0,.57877v-1.7363c0-.19292-.1327-.44235 0-.57878s.4306.13643.5634,0 0-.38585 0-.57876c.1877,0 .3953.0863.5633,0 .2375-.12202.4445-.33475.5633-.57877 .084-.17258-.1878-.57878 0-.57878s.1877.57878 0,.57878c-.6961,0-.5633-.81165-.5633-1.15754v-1.73631c0-.19291-.1878-.57877 0-.57877s0,.77168 0,.57877c0-.38586-.168-.81242 0-1.15754 .014-.0297 1.6394-.052 1.6899,0 .1328.13642-.084.4062 0,.57877 .1187.24403.4445.33474.5633.57877 .3303.67867-.3343.68693-.5633,1.15754-.084.17254 0,.38586 0,.57877v.57876c0,.19292.1877.57878 0,.57878s0-.77168 0-.57878v1.15755c0,.38586.168.81242 0,1.15754-.084.17253-.4306-.13643-.5633,0s.1327.44234 0,.57876-.4305-.13642-.5633,0 0,.38586 0,.57877v.57877c0,.19292.1877.57877 0,.57877s0-.77168 0-.57877c0,.38586-.1188.7915 0,1.15754 .4836,1.49061 1.1266-.51576 1.1266,1.15754 0,.38586.3755,1.15754 0,1.15754s0-1.5434 0-1.15754c0,.77168.01,1.54347 0,2.31508-.024,1.90499-.3507,2.22221-2.2532,3.47261z" fill="#faf3b8"/>
   <path d="m2024.1 89.908a50.842 8.123 0 0 1 -101.68 0 50.842 8.123 0 1 1 101.68 0z" fill="url(#o)"/>
  </g>
  <g transform="translate(-50.53 648.59)">
   <path d="m2342.8 21.944c42.915 14.026 74.188 11.043 104.47 0v222.63c2.8383 29.284-105.62 27.734-105.97 0z" fill="#2b1100"/>
   <path d="m2343.1 22.046c42.141 12.036 74.47 8.8245 104.21 0.61388v224.37c3.0931 24.855-105.48 24.695-106.5 0z" fill="url(#k)"/>
   <path d="m2345.3 22.046c41.225 12.036 72.851 8.8245 101.95 0.61388v224.37c3.0258 24.855-103.18 24.695-104.18 0z" fill="url(#j)"/>
   <path transform="matrix(.37041 0 0 .37041 2295.6 99.172)" d="m124.45 398.92c2.6042 12.811 17.11 18.252 27.906 22.812 54.236 19.08 113.25 18.567 169.93 13.16 24.444-3.2488 49.728-8.2155 70.445-22.379 6.2264-5.2371 6.8032-13.555 5.7462-21-0.2698-194.57-0.087-389.15-0.1212-583.72-87.388 22.356-180.65 21.725-267.72-1.6875l-6.1874 592.81z" fill="url(#i)" filter="url(#d)"/>
   <path d="m2344 23.668c-0.7639 74.376-1.528 148.75-2.2919 223.13 0.9646 4.8218 6.3378 6.87 10.337 8.5864l0.6135 0.21172c3.9614-3.9638 7.7269-8.4602 11.946-12.033 9.822-8.3171 0-13.3 0-24.112s8.1908-12.475 15.557-19.96-2.4558-10.815-5.7298-20.796-1.6367-15.797 5.7298-21.619 2.4489-16.638-1.6437-44.085 9.0047-22.453 22.919-68.197c1.6321-5.3655 2.4312-10.199 2.5697-14.562-20.182 0.95559-40.515-1.2373-60.007-6.5633z" fill="url(#h)"/>
   <path transform="matrix(.37041 0 0 .38049 1077.9 -549.75)" d="m3411.8 2092.9c2.6042 12.811 17.11 18.252 27.906 22.812 54.236 19.08 113.25 18.567 169.93 13.16 24.444-3.2488 49.728-8.2155 70.445-22.379 6.2264-5.2371 6.8032-13.555 5.7462-21-0.2698-194.57-0.087-389.15-0.1212-583.72-87.388 22.356-180.65 21.725-267.72-1.6875l-6.1874 592.81z" fill="url(#g)" filter="url(#d)" opacity=".4071"/>
  </g>
  <g transform="translate(370.01 579.51)">
   <path d="m2026.8 91.607a52.18 9.822 0 0 1 -104.36 0 52.18 9.822 0 1 1 104.36 0z" fill="#e15f29"/>
   <path d="m2026.8 89.356a52.18 7.5712 0 0 1 -104.36 0 52.18 7.5712 0 1 1 104.36 0z" fill="url(#n)"/>
   <path d="m1974.1247,92.07847c-.3756-.77168-2.0822.0776-2.3941-.72345-.097-.37396 2.5872-1.71753 2.3941-3.32793 .084-.17258 0-.38586 0-.57877s.1327-.44235 0-.57877-.4306.13642-.5634,0c-.018-.0185 0-1.59596 0-1.73631v-1.15754c0-.19291-.1877-.57877 0-.57877s0,.77169 0,.57877v-1.7363c0-.19292-.1327-.44235 0-.57878s.4306.13643.5634,0 0-.38585 0-.57876c.1877,0 .3953.0863.5633,0 .2375-.12202.4445-.33475.5633-.57877 .084-.17258-.1878-.57878 0-.57878s.1877.57878 0,.57878c-.6961,0-.5633-.81165-.5633-1.15754v-1.73631c0-.19291-.1878-.57877 0-.57877s0,.77168 0,.57877c0-.38586-.168-.81242 0-1.15754 .014-.0297 1.6394-.052 1.6899,0 .1328.13642-.084.4062 0,.57877 .1187.24403.4445.33474.5633.57877 .3303.67867-.3343.68693-.5633,1.15754-.084.17254 0,.38586 0,.57877v.57876c0,.19292.1877.57878 0,.57878s0-.77168 0-.57878v1.15755c0,.38586.168.81242 0,1.15754-.084.17253-.4306-.13643-.5633,0s.1327.44234 0,.57876-.4305-.13642-.5633,0 0,.38586 0,.57877v.57877c0,.19292.1877.57877 0,.57877s0-.77168 0-.57877c0,.38586-.1188.7915 0,1.15754 .4836,1.49061 1.1266-.51576 1.1266,1.15754 0,.38586.3755,1.15754 0,1.15754s0-1.5434 0-1.15754c0,.77168.01,1.54347 0,2.31508-.024,1.90499-.3507,2.22221-2.2532,3.47261z" fill="#faf3b8"/>
   <path d="m2024.1 89.908a50.842 8.123 0 0 1 -101.68 0 50.842 8.123 0 1 1 101.68 0z" fill="url(#o)"/>
  </g>
  <g transform="translate(474.03 -251.11)">
   <path d="m1571.6915,785.40476c4.698,0 6.3841.6803 10.3263-1.29078 .5442-.27213.7004-1.14321 1.2908-1.29078 1.2522-.31306 2.5815,0 3.8723,0 .4303,0 .9059.19241 1.2908,0 .5442-.27212.7135-1.09837 1.2908-1.29079 .8163-.27212 1.7467.20871 2.5815,0 1.932-.48299 5.0658-3.17829 6.4539-3.87233 .3849-.19242.8605,0 1.2908,0 1.3423,0 6.7293.25383 7.7447,0 5.4003,2.33741 1.4931-2.03732 2.5815-2.58157 .3036-.15176 4.3152,0 5.1632,0h11.617 3.8723c.4303,0 .9866.30424 1.2908,0 .6803-.6803.6105-1.90125 1.2908-2.58156 .3042-.30424.8605,0 1.2908,0h1.2907 18.071 37.4326 70.9929 18.0709c.8306,0 8.1619-.21838 9.0355,0 .9333.23335 1.6482,1.05744 2.5815,1.29078 1.1388.28469 4.0574-.36858 5.1632,0 .9127.30424 1.6381,1.1021 2.5815,1.29078 1.2657.25315 2.5816,0 3.8724,0 .4302,0 .9865-.30423 1.2907,0 .6803.6803.4903,2.04789 1.2908,2.58157 .716.47733 1.7211,0 2.5816,0 1.4994,0 5.2837-.29254 6.4539,0 .9333.23334 1.781.7571 2.5815,1.29077 .5471.36475 3.6053,3.33829 3.8724,3.87235 .1924.38483-.1924.90594 0,1.29078 .5907,1.18147 2.929,2.26713 3.8723,2.58156 .4082.13606.9866-.30424 1.2908,0 .182.18203.1324,3.60756 0,3.87234-.8907,1.78136-6.3964,2.69665-5.1631,5.16312 .6367,1.27348 5.1802,3.44779 6.4539,3.87234 .4082.13606.8826-.13606 1.2908,0 .9127.30424 1.781.75711 2.5815,1.29078 .5063.33752.7135,1.09836 1.2908,1.29078 .8164.27212 1.8119-.38484 2.5816,0 1.0884.54424 1.493,2.03732 2.5815,2.58156 .7697.38483 1.7467-.20871 2.5816,0 6.2331,1.55827-.064.6134 3.8723,2.58156 .3849.19242.9866-.30424 1.2908,0s-.3042.98654 0,1.29078c.6803.6803 1.9013.61048 2.5816,1.29078 .3042.30424 0,.86052 0,1.29078v1.29078 7.74468c0,.58131.1964,3.47951 0,3.87234-.2722.54424-.8606.86052-1.2908,1.29078s-.7466,1.01866-1.2908,1.29078c-.3848.19242-.9865-.30424-1.2908,0-.6085.60848.3849,1.81189 0,2.58156-3.0476,6.09531.6788-7.87842-2.5815,5.16312-.1044.41742 0,.86052 0,1.29078v2.58156 5.16312c0,.72046-.197,5.86303 0,6.4539 .1924.57726.8605.86052 1.2907,1.29078l1.2908,1.29078 6.4539,6.4539c1.2908,1.29078 3.056,2.23962 3.8724,3.87235 .3848.76967-.4428,1.84366 0,2.58155 .9391,1.56531 2.777,2.41199 3.8723,3.87234 .2582.34421-.3042.98654 0,1.29078 .6803.6803 1.9013.61048 2.5816,1.29078 .3042.30424-.1925.90595 0,1.29078 .5442,1.08849 2.0373,1.49308 2.5815,2.58156 .1924.38484-.1924.90595 0,1.29078 .2721.54425 1.0984.71353 1.2908,1.29078 .2793.83795 0,7.86295 0,9.03547 0,1.44947.3076,8.11267 0,9.03546-.3042.91272-.9335,1.68828-1.2908,2.58156-.5053,1.26328-.536,2.74025-1.2908,3.87234-.2386.358-.9865-.30424-1.2907,0-.6803.6803-.7571,1.78105-1.2908,2.58156-3.444,5.16592.8624-2.58436-2.5816,2.58156-.5337.80051-.7571,1.78105-1.2908,2.58156-.3375.50628-.8605.86052-1.2907,1.29078s-.7466,1.01866-1.2908,1.29078c-.3849.19242-.906-.19242-1.2908,0-.5442.27212-.8605.86052-1.2908,1.29078l-1.2908,1.29078c-1.8152,1.81525-2.244,2.4128-5.1631,3.87234-.3848.19242-.9865-.30424-1.2908,0s.3043.98654 0,1.29078-.9865-.30424-1.2907,0 .3042.98654 0,1.29078c-2.6707,2.67067.1044-4.08114-2.5816,1.29078-.1924.38484.3042.98654 0,1.29078s-.9865-.30424-1.2908,0 .3043.98654 0,1.29078-.9865-.30424-1.2908,0c-.6803.6803-.6104,1.90126-1.2907,2.58156s-2.0479.49027-2.5816,1.29078c-.4773.716.3848,1.81189 0,2.58156-1.2908,2.58156-2.5816,1.93617-3.8723,3.87234-.681,1.0214-3.4925,6.60512-3.8724,7.74468-.136.40818.1361.8826 0,1.29078-.3042.91272-.9865,1.66884-1.2908,2.58156-.2721.81636 0,1.72104 0,2.58156v6.4539c0,.84819.2428,3.14409 0,3.87234-.3042.91272-.7571,1.78106-1.2907,2.58156-.3376.50629-1.0984.71353-1.2908,1.29078-.2721.81637.4773,1.86557 0,2.58156-.5337.80051-1.9013.61048-2.5816,1.29078-7.9439,11.91586.3908,1.74077-3.8723,3.87235-5.3719,2.68595 1.3799-.0891-1.2908,2.58156-.6803.6803-1.9013.61047-2.5816,1.29078s-.6104,1.90126-1.2907,2.58156-1.7211.86052-2.5816,1.29078-1.7811.7571-2.5816,1.29078c-.5063.33752-.7465,1.01866-1.2907,1.29078-1.217.60848-2.6554.6823-3.8724,1.29078-13.2982,6.6491 6.5288-2.11018-7.7447,6.4539-.7379.44273-1.8119-.38484-2.5815,0-1.0885.54424-1.569,1.90651-2.5816,2.58156-.358.23866-.9865-.30424-1.2908,0-.6803.6803-.6104,1.90126-1.2907,2.58156-.3043.30424-.9866-.30424-1.2908,0-.6803.6803-.7571,1.78105-1.2908,2.58156-.3375.50628-1.0187.74654-1.2908,1.29078-.2559.51174.2639,3.60844 0,3.87234-.6803.6803-2.0479.4903-2.5816,1.2908-.4773.716 0,1.721 0,2.5815 0,1.2908.3547,2.6313 0,3.8724 2.5843,4.6891-2.9405,4.1245-3.8723,6.4539-.6588,1.6471-.4974,3.5764-1.2908,5.1631-.1924.3848-1.0521-.358-1.2908,0-.7547,1.1321-.6823,2.6554-1.2907,3.8723-.2722.5443-.9533.7845-1.2908,1.2908-.5337.8005-.6105,1.9013-1.2908,2.5816-.3042.3042-.9865-.3043-1.2908,0-.6803.6803-.6105,1.9012-1.2908,2.5815-.3042.3043-.9865-.3042-1.2907,0s.3042.9866 0,1.2908c-.6803.6803-1.8119.7136-2.5816,1.2908-.9736.7302-1.569,1.9065-2.5816,2.5816-.358.2386-.9059-.1925-1.2907,0-.5443.2721-.7466,1.0186-1.2908,1.2907-.7697.3849-1.7467-.2087-2.5816,0-3.4938-2.1937-3.3377,1.9731-5.1631,2.5816-.8164.2721-1.7377-.1688-2.5816,0-13.4265,2.6853 5.6819-.1037-7.7446,2.5816-2.8796.5759-6.1897-.7115-9.0355,0-2.2478.5619-4.226,1.945-6.4539,2.5815-.8274.2364-1.7467-.2087-2.5816,0-.9333.2334-1.6482,1.0575-2.5815,1.2909-.8564.2141-6.6496,0-7.7447,0h-16.7801-18.071-5.1631c-.8605,0-1.7377.1687-2.5815,0-2.5921.2962-4.2061-2.0197-6.4539-2.5817-.8349-.2087-1.8119.3849-2.5816,0-.3848-.1924.3848-1.0983 0-1.2907-2.5816-1.2908-1.9362.6454-3.8723,0-.7377-.2459-7.335-3.4627-7.7447-3.8724-1.097-1.0969-1.4846-2.7754-2.5816-3.8723-.3042-.3043-.9059.1924-1.2908,0-.5442-.2721-.7845-.9533-1.2907-1.2908-.2405-.1603-5.0805-2.4988-5.1632-2.5816-.6803-.6803-.6104-1.9012-1.2907-2.5815-3.1351-3.1351-1.8955.3838-3.8724-2.5816-.5337-.8005-.6105-1.9012-1.2908-2.5815-.3042-.3043-.9865.3042-1.2907,0s.136-.8826 0-1.2908c-.3043-.9127-.6105-1.9013-1.2908-2.5816-.3043-.3042-.9866.3043-1.2908,0-.6803-.6803-.7135-1.8119-1.2908-2.5815-1.3487-1.7983-3.5347-3.5347-5.1631-5.1632-1.4049-1.4049-3.7199-4.2009-5.1631-5.1631-.358-.2386-.906.1924-1.2908,0-1.3875-.6937-2.4848-1.8878-3.8723-2.5815-.7031-.3516-7.2928.3012-7.7447,0-1.0126-.6751-1.569-1.9065-2.5816-2.5816-.3453-.2302-6.2348.088-6.4539,0-1.1299-.452-1.4931-2.0373-2.5815-2.5816-.8445-.4222-5.3834.2677-6.4539,0-6.2332-1.55824.064-.6134-3.8724-2.58152-.3848-.19242-.9865.30424-1.2908,0s.3043-.98654 0-1.29078c-.6803-.6803-1.9012-.61048-2.5815-1.29078s-.6105-1.90126-1.2908-2.58156-1.9013-.61048-2.5816-1.29078-.7571-1.78105-1.2907-2.58156c-.6751-1.01257-1.9066-1.56899-2.5816-2.58156-.5337-.80051-.6105-1.90126-1.2908-2.58156-.3042-.30424-1.0983.38483-1.2908,0-.3848-.76968.2722-1.7652 0-2.58156-.1924-.57726-1.0186-.74654-1.2907-1.29078-.6085-1.21696-.6823-2.65538-1.2908-3.87234-.2721-.54424-1.0187-.74654-1.2908-1.29078-.2872-.57437.1968-4.57274 0-5.16312-.1924-.57726-.8605-.86053-1.2908-1.29079 0-1.29078.3131-2.62009 0-3.87234-.1476-.59031-1.0186-.74653-1.2908-1.29078-.1924-.38483.1361-.8826 0-1.29078-.3042-.91272-.9334-1.68828-1.2907-2.58156-.5054-1.26328-1.024-2.53816-1.2908-3.87234-.1688-.84381.3848-1.81188 0-2.58156-.5443-1.08848-2.1296-1.45164-2.5816-2.58156-.4794-1.19846.4082-2.6478 0-3.87234-2.0292-6.08754-1.8336-2.10509-3.8723-5.16312-5.2243-7.83641 3.7157,4.04161-2.5816-6.4539-.6261-1.04353-1.9065-1.56899-2.5815-2.58156-.2387-.358.1597-.89129 0-1.29078-2.2154-5.53829-2.3689-4.37831-5.1632-9.03546-4.1134-6.85569 2.3817,3.27266-1.2907-7.74468-.3849-1.15451-1.9066-1.56899-2.5816-2.58156-.2387-.358 0-.86052 0-1.29078-.8605-1.29078-1.4846-2.77539-2.5816-3.87234s-2.7754-1.48461-3.8723-2.58156c-.6803-.6803-.7571-1.78105-1.2908-2.58156-1.2902-1.93528-4.1311-3.09906-5.1631-5.16312-.3848-.76968.2721-1.7652 0-2.58156-.2914-.87406-3.3793-2.88633-3.8724-3.87234-.1924-.38484 0-.86052 0-1.29078 0-.86052.2088-1.74674 0-2.58156-.2333-.93337-1.0574-1.6482-1.2907-2.58156-.2539-1.01535 0-6.40237 0-7.74469v-7.74468-3.87233c0-.86052-.2722-1.7652 0-2.58156 .3042-.91272.9865-1.66885 1.2907-2.58157 .1361-.40818-.1924-.90594 0-1.29078 .2722-.54424.9257-.80399 1.2908-1.29078 .9308-1.24106 1.4846-2.77538 2.5816-3.87234 .3042-.30424.9865.30424 1.2908,0s-.1924-.90594 0-1.29078c.5931-1.18629 4.8366-4.18369 5.1631-5.16312 .2721-.81636-.3848-1.81188 0-2.58156 .1924-.38483.9865.30424 1.2908,0 .6803-.6803.6104-1.90126 1.2907-2.58156 .6085-.60848 1.8119.38484 2.5816,0 5.3719-2.68596-1.3799.0891 1.2908-2.58156 .6803-.6803 1.9012-.61048 2.5816-1.29078 .3042-.30424-.3043-.98654 0-1.29078s.9059.19242 1.2907,0c.5443-.27212.8606-.86052 1.2908-1.29078s.9533-.78449 1.2908-1.29078c.5337-.80051.7571-1.78105 1.2908-2.58156 .3375-.50628 1.0186-.74654 1.2908-1.29078 .1924-.38484-.3043-.98654 0-1.29078s.9865.30424 1.2907,0-.1924-.90594 0-1.29078c.2722-.54424 1.0187-.74654 1.2908-1.29078 .3848-.76967-.3848-1.81189 0-2.58156 .2721-.54424 1.0187-.74654 1.2908-1.29078 .1924-.38484 0-.86052 0-1.29078 0-.86052-.2721-1.7652 0-2.58156 .1924-.57725 1.0187-.74654 1.2908-1.29078 .1924-.38484-.1044-.87337 0-1.29078 .33-1.31998.9608-2.55236 1.2908-3.87234 .2087-.83483-.3849-1.81189 0-2.58156 .2721-.54424 1.0186-.74654 1.2907-1.29078 .1924-.38484-.1924-.90595 0-1.29078 .5443-1.08848 2.0374-1.49308 2.5816-2.58156 .1924-.38484-.3042-.98654 0-1.29078s.9865.30424 1.2908,0c.6085-.60848-.6085-1.97308 0-2.58156 .3042-.30424.9059.19242 1.2908,0 3.4834-1.74174-.045-.57856 1.2907-2.58156 .6751-1.01257 1.608-1.85139 2.5816-2.58156 .7697-.57726 1.781-.75711 2.5816-1.29078 2.5571.12885.6104-1.90126 1.2907-2.58156 1.9481-1.94809 4.3026-3.44208 6.4539-5.16312z" fill="url(#ae)" opacity=".7566"/>
   <g transform="translate(-702.68 899.84)">
    <path d="m2342.8 21.944c42.915 14.026 74.188 11.043 104.47 0v222.63c2.8383 29.284-105.62 27.734-105.97 0z" fill="#2b1100"/>
    <path d="m2343.1 22.046c42.141 12.036 74.47 8.8245 104.21 0.61388v224.37c3.0931 24.855-105.48 24.695-106.5 0z" fill="url(#k)"/>
    <path d="m2345.3 22.046c41.225 12.036 72.851 8.8245 101.95 0.61388v224.37c3.0258 24.855-103.18 24.695-104.18 0z" fill="url(#j)"/>
    <path transform="matrix(.37041 0 0 .37041 2295.6 99.172)" d="m124.45 398.92c2.6042 12.811 17.11 18.252 27.906 22.812 54.236 19.08 113.25 18.567 169.93 13.16 24.444-3.2488 49.728-8.2155 70.445-22.379 6.2264-5.2371 6.8032-13.555 5.7462-21-0.2698-194.57-0.087-389.15-0.1212-583.72-87.388 22.356-180.65 21.725-267.72-1.6875l-6.1874 592.81z" fill="url(#i)" filter="url(#d)"/>
    <path d="m2344 23.668c-0.7639 74.376-1.528 148.75-2.2919 223.13 0.9646 4.8218 6.3378 6.87 10.337 8.5864l0.6135 0.21172c3.9614-3.9638 7.7269-8.4602 11.946-12.033 9.822-8.3171 0-13.3 0-24.112s8.1908-12.475 15.557-19.96-2.4558-10.815-5.7298-20.796-1.6367-15.797 5.7298-21.619 2.4489-16.638-1.6437-44.085 9.0047-22.453 22.919-68.197c1.6321-5.3655 2.4312-10.199 2.5697-14.562-20.182 0.95559-40.515-1.2373-60.007-6.5633z" fill="url(#h)"/>
    <path transform="matrix(.37041 0 0 .38049 1077.9 -549.75)" d="m3411.8 2092.9c2.6042 12.811 17.11 18.252 27.906 22.812 54.236 19.08 113.25 18.567 169.93 13.16 24.444-3.2488 49.728-8.2155 70.445-22.379 6.2264-5.2371 6.8032-13.555 5.7462-21-0.2698-194.57-0.087-389.15-0.1212-583.72-87.388 22.356-180.65 21.725-267.72-1.6875l-6.1874 592.81z" fill="url(#g)" filter="url(#d)" opacity=".4071"/>
   </g>
   <g transform="translate(-24.74 829.8)">
    <path transform="matrix(.81851 0 0 .78614 -591.74 -1096.1)" d="m2827.5 1502.9c-11.048 2.7621-25.412 1.6573-25.412-19.335s11.455-44.245 13.838-66.67c4.2662-40.138 3.8393-64.255 3.8393-64.255s-0.876 94.276 3.3145 100.54c1.4563 11.344 12.706 23.754 12.706 28.726 1.3073 9.6188-2.5957 19.333-8.2865 20.992z" filter="url(#ab)" opacity=".9956"/>
    <path d="m1769.3 91.944a52.18 9.822 0 0 1 -104.36 0 52.18 9.822 0 1 1 104.36 0z" fill="#e15f29"/>
    <g transform="matrix(.78117 0 0 .78117 -489.11 -1084.8)">
     <path d="m2830.6 1498.2c-11.048 2.7621-25.412 1.6573-25.412-19.335s11.455-44.245 13.838-66.67c4.2662-40.138 3.8393-64.255 3.8393-64.255s-0.876 94.276 3.3145 100.54c1.4563 11.344 12.706 23.754 12.706 28.726 1.3073 9.6188-2.5957 19.333-8.2865 20.992z" fill="#fdffde"/>
     <path d="m2821.7 1396.6c-1.0469 15.727-3.5754 31.392-8.4025 46.416-3.7884 13.454-8.0709 27.454-6.5663 41.49 0.9063 6.3034 5.2115 12.665 12.017 13.274 4.807 0.7407 10.377 0.5856 14.353-2.581 4.9248-5.291 6.0037-13.562 3.9028-20.372-2.8389-6.6364-7.6706-12.301-10.031-19.156-4.9667-13.518-4.0472-28.186-4.7906-42.335-0.1827-6.2539-0.2821-12.51-0.3259-18.766-0.052 0.6771-0.1042 1.3542-0.1562 2.0313z" fill="url(#ao)"/>
     <path d="m2821.7 1396.6c-1.0469 15.727-3.5754 31.392-8.4025 46.416-3.7884 13.454-8.0709 27.454-6.5663 41.49 0.9063 6.3034 5.2115 12.665 12.017 13.274 4.807 0.7407 10.377 0.5856 14.353-2.581 4.9248-5.291 6.0037-13.562 3.9028-20.372-2.8389-6.6364-7.6706-12.301-10.031-19.156-4.9667-13.518-4.0472-28.186-4.7906-42.335-0.1827-6.2539-0.2821-12.51-0.3259-18.766-0.052 0.6771-0.1042 1.3542-0.1562 2.0313z" fill="url(#an)"/>
     <path d="m2821.6 1396.6c-0.69 15.727-2.3568 31.392-5.5387 46.416-2.4972 13.454-5.3201 27.454-4.3284 41.49 0.5974 6.3034 3.4354 12.665 7.9214 13.274 3.1687 0.7407 6.8404 0.5856 9.4612-2.581 3.2463-5.291 3.9574-13.562 2.5726-20.372-1.8713-6.6364-5.0563-12.301-6.6124-19.156-3.274-13.518-2.6678-28.186-3.1579-42.335-0.1204-6.2539-0.186-12.51-0.2148-18.766-0.034 0.6771-0.069 1.3542-0.103 2.0313z" fill="url(#am)"/>
     <path transform="matrix(1 0 0 1.3768 -1.1719 -554.71)" d="m2834.8 1478.3a11.719 13.477 0 1 1 -23.438 0 11.719 13.477 0 1 1 23.438 0z" fill="url(#ad)" opacity=".354"/>
    </g>
    <path d="m1769.3 89.693a52.18 7.5712 0 0 1 -104.36 0 52.18 7.5712 0 1 1 104.36 0z" fill="url(#ac)"/>
    <path d="m1716.6082,92.41503c-.3756-.77168-2.0822.0776-2.3941-.72345-.097-.37396 2.5872-1.71753 2.3941-3.32793 .084-.17258 0-.38586 0-.57877s.1327-.44235 0-.57877-.4306.13642-.5634,0c-.018-.0185 0-1.59596 0-1.73631v-1.15754c0-.19291-.1877-.57877 0-.57877s0,.77169 0,.57877v-1.7363c0-.19292-.1327-.44235 0-.57878s.4306.13643.5634,0 0-.38585 0-.57876c.1877,0 .3953.0863.5633,0 .2375-.12202.4445-.33475.5633-.57877 .084-.17258-.1878-.57878 0-.57878s.1877.57878 0,.57878c-.6961,0-.5633-.81165-.5633-1.15754v-1.73631c0-.19291-.1878-.57877 0-.57877s0,.77168 0,.57877c0-.38586-.168-.81242 0-1.15754 .014-.0297 1.6394-.052 1.6899,0 .1328.13642-.084.4062 0,.57877 .1187.24403.4445.33474.5633.57877 .3303.67867-.3343.68693-.5633,1.15754-.084.17254 0,.38586 0,.57877v.57876c0,.19292.1877.57878 0,.57878s0-.77168 0-.57878v1.15755c0,.38586.168.81242 0,1.15754-.084.17253-.4306-.13643-.5633,0s.1327.44234 0,.57876-.4305-.13642-.5633,0 0,.38586 0,.57877v.57877c0,.19292.1877.57877 0,.57877s0-.77168 0-.57877c0,.38586-.1188.7915 0,1.15754 .4836,1.49061 1.1266-.51576 1.1266,1.15754 0,.38586.3755,1.15754 0,1.15754s0-1.5434 0-1.15754c0,.77168.01,1.54347 0,2.31508-.024,1.90499-.3507,2.22221-2.2532,3.47261z" fill="url(#al)"/>
    <path d="m1766.6 90.245a50.842 8.123 0 0 1 -101.68 0 50.842 8.123 0 1 1 101.68 0z" fill="url(#ak)"/>
    <g transform="matrix(.37041 0 0 .37041 329.88 -431.09)">
     <path transform="matrix(2.2097 0 0 2.1223 -2485.6 -1794.8)" d="m2827.5 1502.9c-11.048 2.7621-25.412 1.6573-25.412-19.335s11.455-44.245 13.838-66.67c4.2662-40.138 3.8393-64.255 3.8393-64.255s-0.876 94.276 3.3145 100.54c1.4563 11.344 12.706 23.754 12.706 28.726 1.3073 9.6188-2.5957 19.333-8.2865 20.992z" fill="#f00" filter="url(#ab)" opacity=".9956"/>
     <path d="m3761 1390.5c-23.3 5.8251-53.591 3.4951-53.591-40.776s24.157-93.308 29.184-140.6c8.9971-84.648 8.0968-135.51 8.0968-135.51s-1.8474 198.82 6.99 212.03c3.0712 23.924 26.796 50.096 26.796 60.581 2.757 20.285-5.4741 40.771-17.476 44.271z" fill="url(#aj)"/>
     <path d="m3746.2374,1413.7065c-1.0139-2.0833-5.6212.2095-6.4632-1.9531-.2608-1.0096 6.9847-4.6368 6.4632-8.9844 .2267-.4659 0-1.0417 0-1.5625s.3585-1.1942 0-1.5625-1.1623.3683-1.5208,0c-.049-.05 0-4.3086 0-4.6875v-3.125c0-.5208-.5068-1.5625 0-1.5625s0,2.0833 0,1.5625v-4.6875c0-.5208-.3584-1.1942 0-1.5625s1.1623.3683 1.5208,0 0-1.0417 0-1.5625c.5069,0 1.0674.2329 1.5208,0 .6412-.3294 1.2001-.9037 1.5207-1.5625 .2267-.4659-.5069-1.5625 0-1.5625s.5069,1.5625 0,1.5625c-1.8792,0-1.5207-2.1912-1.5207-3.125v-4.6875c0-.5208-.5069-1.5625 0-1.5625s0,2.0833 0,1.5625c0-1.0417-.4534-2.1933 0-3.125 .039-.08 4.4258-.1402 4.5622,0 .3585.3683-.2267,1.0966 0,1.5625 .3206.6588 1.2002.9037 1.5208,1.5625 .8916,1.8322-.9025,1.8545-1.5208,3.125-.2267.4658 0,1.0417 0,1.5625v1.5625c0,.5208.5069,1.5625 0,1.5625s0-2.0833 0-1.5625v3.125c0,1.0417.4535,2.1933 0,3.125-.2267.4658-1.1623-.3683-1.5207,0s.3584,1.1942 0,1.5625-1.1623-.3683-1.5208,0 0,1.0417 0,1.5625v1.5625c0,.5208.5069,1.5625 0,1.5625s0-2.0833 0-1.5625c0,1.0417-.3206,2.1368 0,3.125 1.3056,4.0242 3.0415-1.3924 3.0415,3.125 0,1.0417 1.0139,3.125 0,3.125s0-4.1667 0-3.125c0,2.0833.026,4.1669 0,6.25-.064,5.1429-.9468,5.9993-6.083,9.375z" fill="url(#ai)"/>
     <path transform="matrix(.90428 0 0 .93779 148.81 1.8826)" d="m3972.4 1258.6c-1.4551 33.167-4.9702 66.203-11.681 97.888-5.2664 28.373-11.22 57.897-9.1282 87.499 1.2599 13.293 7.245 26.709 16.706 27.993 6.6825 1.562 14.426 1.2349 19.953-5.4432 6.8462-11.158 8.3458-28.6 5.4254-42.963-3.9464-13.996-10.663-25.942-13.945-40.399-6.9046-28.508-5.6262-59.441-6.6597-89.282-0.254-13.189-0.3923-26.382-0.453-39.576-0.072 1.4279-0.1455 2.8559-0.2173 4.2838z" fill="url(#ah)" filter="url(#ay)"/>
     <path transform="matrix(1.2089 0 0 2.9036 332.48 -2939.7)" d="m2834.8 1478.3a11.719 13.477 0 1 1 -23.438 0 11.719 13.477 0 1 1 23.438 0z" fill="#f00" opacity=".354"/>
     <path d="m3755.8 1382.7c-18.967 5.2518-43.624 3.1511-43.624-36.762s19.664-84.123 23.756-126.76c7.3238-76.315 6.5909-122.17 6.5909-122.17s-1.5039 179.25 5.69 191.16c2.5 21.569 21.812 45.165 21.812 54.618 2.2443 18.288-4.456 36.758-14.225 39.913z" fill="url(#ag)" opacity=".4027"/>
     <path d="m3752.8 1385.8c-17.696 5.7396-40.7 3.4438-40.7-40.177s18.347-91.938 22.164-138.54c6.8329-83.405 6.1492-133.52 6.1492-133.52s-1.4031 195.9 5.3087 208.92c2.3323 23.573 20.35 49.36 20.35 59.692 2.0939 19.987-4.1573 40.172-13.272 43.62z" fill="url(#af)" filter="url(#ax)"/>
    </g>
   </g>
  </g>
  <g transform="translate(60.164 1148.2)">
   <path d="m2429.7-174.35c1.4423-12.246 2.1275-24.423-31.456-33.506 12.604 1.0169 28.298-22.374 26.531-32.535 17.954 12.141 24.57 4.1255 27.971-9.6047 22.494 15.393 18.871-5.1249 16.001-24.608 26.873 24.937 38.926 22.545 39.757-0.54115 20.863 32.963 34.913 38.312 40.305 8.5777 10.542 25.987 20.582 41.414 28.701 16.504 5.1571 25.656 11.776 25.01 18.535 21.82 16.308 26.775 24.419 16.66 34.635 16.019-1.7881 1.7881-10.826 8.9698-22.475 18.052-9.696 7.5587-21.267 5.5878-29.392 11.36-12.867 9.1416-1.8564 36.414-3.6105 34.173-34.784-44.442-34.627 8.8045-34.627 8.8045-15.606-31.059-29.638-32.376-34.723-23.471-2.2131 3.8754-5.715 14.755-7.0331 12.286-16.823-31.512-35.064-11.569-35.064 1.6289 1.4482-14.952-12.878-46.572-34.054-24.959z" fill="#035c00"/>
   <path transform="matrix(1.2095 -1.2095 1.2095 1.2095 -5978.8 -5906.6)" d="m1121.4775,5829.4287c1.2852.8159 2.4608,1.7469 3.5893,2.7667 1.2773,1.2125 2.8525,2.0069 4.2198,3.0917 1.4069,1.2621 2.6346,2.7071 3.883,4.1224 1.815,1.9914 3.8363,3.7785 5.6564,5.763 1.8552,2.0869 3.577,4.2918 5.2295,6.5416 1.3563,1.8324 2.8756,3.5417 4.4127,5.2238 1.4581,1.4881 2.6475,3.2052 3.9472,4.8254 1.3176,1.8171 2.5771,3.6711 3.8254,5.5364 1.3984,1.9498 2.7806,3.906 4.1708,5.862 1.4349,2.2007 3.0647,4.2526 4.7593,6.255 1.7376,1.93 3.5707,3.7701 5.5134,5.4935 1.9598,1.6215 4.033,3.0974 6.1048,4.5706 1.9535,1.3499 3.6904,2.9698 5.5397,4.4547 1.4005,1.0854 2.7397,2.2716 4.2676,3.1773 .9202.8786 2.1454,1.175 3.2298,1.7438 1.297.4963 2.4701,1.1053 3.5779,1.9477 1.0205.6739 2.0101,1.3993 2.9627,2.1661l-3.4205.3072c-.9531-.7593-1.9379-1.4802-2.9549-2.1521-1.1285-.7957-2.3404-1.3498-3.6097-1.882-1.1272-.5042-2.2513-.9772-3.2144-1.7807-1.4922-.9603-2.8413-2.1265-4.2329-3.2235-1.8338-1.4819-3.5469-3.1116-5.5024-4.4381-2.0764-1.4841-4.1714-2.9491-6.1149-4.6074-1.9349-1.7497-3.785-3.5893-5.5175-5.5408-1.69-2.0165-3.3084-4.0912-4.7693-6.2821l-4.1745-5.87c-1.2607-1.8514-2.4954-3.7201-3.8459-5.5084-1.2811-1.6235-2.4848-3.3163-3.9299-4.8035-1.5397-1.69-3.0566-3.4115-4.4022-5.2617-1.6284-2.2466-3.3436-4.437-5.1951-6.5046-1.8468-1.9748-3.879-3.7662-5.7017-5.7662-1.257-1.3979-2.4868-2.8376-3.923-4.0565-1.3883-1.0561-2.9214-1.9133-4.2023-3.1169-1.1475-1.0134-2.3653-1.915-3.6617-2.7304l3.4835-.324z" fill="#004100" filter="url(#r)"/>
   <path transform="matrix(1.1879 -1.1879 1.3668 1.3668 -6872.6 -6855.5)" d="m1129.2 5824c-0.128-0.01-0.2548 0.058-0.4245 0.1775-4.1774 2.4762-9.6078 3.3869-14.647 3.1944 6.5191 14.157 15.678 29.173 28.051 39.901 15.481 13.421 34.266 26.377 53.373 37.091h0.03c0.9418 0.089 1.554 0.062 1.3647-0.2662-4.8196-3.5885-4.2786-9.7334-2.9417-14.671 0.1505-1.2804-2.3367-1.3695-2.6686-2.7212-2.5373-3.5661 0.4831-7.7138 2.0016-10.47-3.2861 1.0616-7.8751-0.4799-7.4905-3.9635-0.4077-4.2628 1.7169-8.2199 3.3054-12.127-3.6783 2.1502-10.279 2.9931-12.282-1.4197-2.6359-5.1012-0.9402-11.285 0.091-16.357-3.4696 3.1006-10.804 2.7964-12.525-1.7155-2.373-3.6701-2.7353-8.0421-3.1235-12.216-2.9874 3.3977-6.2198 8.3572-11.857 7.8973-3.0116-0.7713-3.842-3.8733-4.8219-6.1818-4.3456 2.4946-11.621 2.1065-13.616-2.6323-0.9055-0.569-0.9239-3.4525-1.8196-3.5199z" fill="url(#p)" filter="url(#q)"/>
  </g>
  <g transform="matrix(.64279 .76604 -.76604 .64279 595.87 -818.1)">
   <path d="m2817.2-565.7c5.5149 11.028 11.625 21.584 44.685 10.745-11.095 6.0674-11.376 34.234-4.3227 41.758-21.672-0.29608-22.803 10.036-18.111 23.38-27.252-0.52263-12.963 14.641 0.1296 29.352-36.15-6.0981-44.913 2.5166-32.938 22.272-35.531-16.104-50.211-12.866-38.4 14.95-23.075-15.938-39.934-23.324-33.05 1.9549-18.392-18.617-23.57-14.444-27.469-8.0676-28.328-13.432-29.556-0.5249-37.745 5.6174 0.5134-2.4761 4.1268-13.439 8.8811-27.425 3.957-11.64 14.712-16.343 18.336-25.627 5.7392-14.704-18.433-31.459-15.737-30.548 53.468 18.061 24.114-26.364 24.114-26.364 30.091 17.399 42.544 10.798 41.908 0.56349-0.2768-4.4544-3.3207-15.471-0.8636-14.131 31.358 17.11 35.661-9.5726 28.418-20.605 6.9949 13.293 36.325 31.863 42.165 2.1754z" fill="#035c00"/>
   <path d="m2711.7-527.11c3.3903 7.1397 8.7127 16.964 2.7813 24.401-7.8915 6.204-18.534 2.2615-27.09 0.27432 7.5035 7.1068 16.993 17.264 12.951 28.372-4.6828 10.347-16.758 16.429-19.286 27.836-2.4734 7.3106-5.2194 14.546-7.4604 21.917 4.4587-5.5472 10.436-10.953 17.901-9.8415 6.1173 0.50653 11.878 2.6923 17.405 5.2345 2.6511-5.726 9.8084-6.4615 14.337-3.2004 4.26 2.4178 7.8491 5.7935 11.429 9.0859-1.2452-4.8264-1.9661-13.298 4.7268-14.398 10.299 0.0547 18.951 7.2939 27.488 12.369-2.1049-6.4421-5.4976-15.465 0.9588-20.888 8.6385-4.6919 18.568-0.30636 27.126 2.1808 2.6322 0.0729 11.428 6.3734 8.7277 1.809-3.3584-5.6554-4.2442-15.093 3.0648-18.364 9.5843-4.2952 20.512-2.4439 30.568-1.4077-5.1581-6.5553-13.173-12.824-13.689-21.626 1.0432-6.7756 10.273-6.5845 14.992-7.0058-2.4968-6.5899-3.1353-16.51 4.4844-20.31 3.7455-2.5206 9.9448-2.2226 12.997-3.1792-5.1296-10.658-4.3006-24.208 0.9562-35.026 4.3948-4.7792-2.0698-1.3279-5.0082-0.92647-10.648 2.7602-24.35 2.9487-30.502-7.5972-1.345-2.2039-2.4529-5.7204-3.0708-1.1054-2.2403 7.9418-10.998 13.29-18.553 11.08-7.4106-1.7125-14.03-6.1576-19.051-11.794 2.1547 8.3547-2.5027 19.976-12.338 20.544-6.7112 1.0184-13.561-2.2321-19.347-4.7577-0.047 6.8846 4.7731 15.997-2.231 21.354-9.8041 5.7891-21.54 0.38014-30.861-3.6478-1.0638-0.0146-6.6118-4.3316-4.4059-1.3822z" fill="url(#y)"/>
   <path transform="matrix(1.2095 -1.2095 1.2095 1.2095 -5936.4 -6119.9)" d="m1217.3234,5913.4477c.4248.011.8501-.01 1.2748,0 1.4501.042 2.9014.061 4.3497.1445 1.2825.074 2.5933.5178 3.8398.7949 3.6116.7482 7.1813,1.6884 10.7418,2.6477 2.5653.677 4.986,1.7635 7.5216,2.5294 2.4822.8232 5.0021,1.5238 7.3771,2.6312 2.0301.9851 4.1046,1.8542 6.2067,2.6719 2.1738.845 4.2978,1.7981 6.4975,2.576 2.3291,1.0554 4.706,1.9831 7.1568,2.7143 2.7915.8737 5.6091,1.6543 8.3909,2.5603 2.6814.8005 5.43,1.341 8.183,1.8274 2.469.472 4.9862.4667 7.4807.6769 2.1611.2433 4.332.3486 6.5047.4096 1.9561.044 3.9128.046 5.8693.044h1.2101c3.5194.093 7.0856-.2476 10.5748.3136 .8501.1567 1.7012.3058 2.5545.4435l-3.4095.4824c-.8383-.1444-1.6748-.2988-2.5127-.4453-2.1035-.3123-.7909-.047 1.0876-.2632 .414-.048-.8333-.0006-1.25-.0005h-3.6689c-2.6606,0-5.3213.01-7.982,0-1.9447,0-3.8897-.01-5.834-.06-2.1709-.069-4.3386-.1905-6.4984-.4277-2.4903-.1877-4.9979-.2291-7.4577-.7135-2.7538-.5006-5.5059-1.0414-8.1821-1.8738-2.7866-.9-5.6069-1.6828-8.4028-2.5523-2.4516-.7572-4.8275-1.702-7.178-2.7278-2.1981-.7886-4.3228-1.752-6.5037-2.5853-2.1007-.8208-4.1728-1.7025-6.2006-2.692-2.3793-1.0623-4.8809-1.7809-7.354-2.5899-2.5189-.7905-4.9485-1.8376-7.5029-2.5211-3.5531-.9851-7.1257-1.9142-10.7439-2.6305l-2.7417-.5937c-.383-.069-1.5372-.085-1.1559-.1619 3.4575-.6987 2.9143.089 1.2128-.093l-3.4554-.5473z" fill="#004100" filter="url(#m)"/>
   <path d="m2711.2-528.07c-0.051 0.11854 0.078 0.39199 0.4914 0.94496 3.3903 7.1397 8.7284 16.98 2.7969 24.416-7.8916 6.2039-18.544 2.2517-27.1 0.26451 7.5035 7.1068 17.006 17.277 12.964 28.385-4.6827 10.346-16.748 16.412-19.276 27.818-2.1322 6.302-4.4619 12.573-6.5009 18.898 0.8361-0.2749 1.6627-0.55345 2.4945-0.83151 3.9412-3.8832 8.7668-6.8162 14.438-5.9717 0.6247 0.0516 1.2348 0.10365 1.8521 0.18879 18.582-6.9301 35.623-14.606 50.156-22.791 28.375-15.982 61.926-57.68 87.083-93.13-3.6425-1.3996-6.8352-3.7531-9.0334-7.5215-1.345-2.2039-2.4436-5.7112-3.0616-1.0962-2.2403 7.9418-11.004 13.285-18.558 11.074-7.4106-1.7125-14.028-6.1557-19.049-11.792 2.1547 8.3547-2.5239 19.955-12.359 20.523-6.7112 1.0185-13.566-2.2367-19.352-4.7622-0.047 6.8845 4.7741 15.998-2.23 21.355-9.8041 5.7891-21.521 0.39949-30.842-3.6284-0.8643-0.0118-4.6927-2.8563-4.9135-2.3434z" fill="url(#x)"/>
  </g>
  <g transform="matrix(.98481 .17365 -.17365 .98481 -1.4443 899.22)">
   <path d="m2817.2-565.7c5.5149 11.028 11.625 21.584 44.685 10.745-11.095 6.0674-11.376 34.234-4.3227 41.758-21.672-0.29608-22.803 10.036-18.111 23.38-27.252-0.52263-12.963 14.641 0.1296 29.352-36.15-6.0981-44.913 2.5166-32.938 22.272-35.531-16.104-50.211-12.866-38.4 14.95-23.075-15.938-39.934-23.324-33.05 1.9549-18.392-18.617-23.57-14.444-27.469-8.0676-28.328-13.432-29.556-0.5249-37.745 5.6174 0.5134-2.4761 4.1268-13.439 8.8811-27.425 3.957-11.64 14.712-16.343 18.336-25.627 5.7392-14.704-18.433-31.459-15.737-30.548 53.468 18.061 24.114-26.364 24.114-26.364 30.091 17.399 42.544 10.798 41.908 0.56349-0.2768-4.4544-3.3207-15.471-0.8636-14.131 31.358 17.11 35.661-9.5726 28.418-20.605 6.9949 13.293 36.325 31.863 42.165 2.1754z" fill="#035c00"/>
   <path d="m2711.7-527.11c3.3903 7.1397 8.7127 16.964 2.7813 24.401-7.8915 6.204-18.534 2.2615-27.09 0.27432 7.5035 7.1068 16.993 17.264 12.951 28.372-4.6828 10.347-16.758 16.429-19.286 27.836-2.4734 7.3106-5.2194 14.546-7.4604 21.917 4.4587-5.5472 10.436-10.953 17.901-9.8415 6.1173 0.50653 11.878 2.6923 17.405 5.2345 2.6511-5.726 9.8084-6.4615 14.337-3.2004 4.26 2.4178 7.8491 5.7935 11.429 9.0859-1.2452-4.8264-1.9661-13.298 4.7268-14.398 10.299 0.0547 18.951 7.2939 27.488 12.369-2.1049-6.4421-5.4976-15.465 0.9588-20.888 8.6385-4.6919 18.568-0.30636 27.126 2.1808 2.6322 0.0729 11.428 6.3734 8.7277 1.809-3.3584-5.6554-4.2442-15.093 3.0648-18.364 9.5843-4.2952 20.512-2.4439 30.568-1.4077-5.1581-6.5553-13.173-12.824-13.689-21.626 1.0432-6.7756 10.273-6.5845 14.992-7.0058-2.4968-6.5899-3.1353-16.51 4.4844-20.31 3.7455-2.5206 9.9448-2.2226 12.997-3.1792-5.1296-10.658-4.3006-24.208 0.9562-35.026 4.3948-4.7792-2.0698-1.3279-5.0082-0.92647-10.648 2.7602-24.35 2.9487-30.502-7.5972-1.345-2.2039-2.4529-5.7204-3.0708-1.1054-2.2403 7.9418-10.998 13.29-18.553 11.08-7.4106-1.7125-14.03-6.1576-19.051-11.794 2.1547 8.3547-2.5027 19.976-12.338 20.544-6.7112 1.0184-13.561-2.2321-19.347-4.7577-0.047 6.8846 4.7731 15.997-2.231 21.354-9.8041 5.7891-21.54 0.38014-30.861-3.6478-1.0638-0.0146-6.6118-4.3316-4.4059-1.3822z" fill="url(#y)"/>
   <path transform="matrix(1.2095 -1.2095 1.2095 1.2095 -5936.4 -6119.9)" d="m1217.3234,5913.4477c.4248.011.8501-.01 1.2748,0 1.4501.042 2.9014.061 4.3497.1445 1.2825.074 2.5933.5178 3.8398.7949 3.6116.7482 7.1813,1.6884 10.7418,2.6477 2.5653.677 4.986,1.7635 7.5216,2.5294 2.4822.8232 5.0021,1.5238 7.3771,2.6312 2.0301.9851 4.1046,1.8542 6.2067,2.6719 2.1738.845 4.2978,1.7981 6.4975,2.576 2.3291,1.0554 4.706,1.9831 7.1568,2.7143 2.7915.8737 5.6091,1.6543 8.3909,2.5603 2.6814.8005 5.43,1.341 8.183,1.8274 2.469.472 4.9862.4667 7.4807.6769 2.1611.2433 4.332.3486 6.5047.4096 1.9561.044 3.9128.046 5.8693.044h1.2101c3.5194.093 7.0856-.2476 10.5748.3136 .8501.1567 1.7012.3058 2.5545.4435l-3.4095.4824c-.8383-.1444-1.6748-.2988-2.5127-.4453-2.1035-.3123-.7909-.047 1.0876-.2632 .414-.048-.8333-.0006-1.25-.0005h-3.6689c-2.6606,0-5.3213.01-7.982,0-1.9447,0-3.8897-.01-5.834-.06-2.1709-.069-4.3386-.1905-6.4984-.4277-2.4903-.1877-4.9979-.2291-7.4577-.7135-2.7538-.5006-5.5059-1.0414-8.1821-1.8738-2.7866-.9-5.6069-1.6828-8.4028-2.5523-2.4516-.7572-4.8275-1.702-7.178-2.7278-2.1981-.7886-4.3228-1.752-6.5037-2.5853-2.1007-.8208-4.1728-1.7025-6.2006-2.692-2.3793-1.0623-4.8809-1.7809-7.354-2.5899-2.5189-.7905-4.9485-1.8376-7.5029-2.5211-3.5531-.9851-7.1257-1.9142-10.7439-2.6305l-2.7417-.5937c-.383-.069-1.5372-.085-1.1559-.1619 3.4575-.6987 2.9143.089 1.2128-.093l-3.4554-.5473z" fill="#004100" filter="url(#m)"/>
   <path d="m2711.2-528.07c-0.051 0.11854 0.078 0.39199 0.4914 0.94496 3.3903 7.1397 8.7284 16.98 2.7969 24.416-7.8916 6.2039-18.544 2.2517-27.1 0.26451 7.5035 7.1068 17.006 17.277 12.964 28.385-4.6827 10.346-16.748 16.412-19.276 27.818-2.1322 6.302-4.4619 12.573-6.5009 18.898 0.8361-0.2749 1.6627-0.55345 2.4945-0.83151 3.9412-3.8832 8.7668-6.8162 14.438-5.9717 0.6247 0.0516 1.2348 0.10365 1.8521 0.18879 18.582-6.9301 35.623-14.606 50.156-22.791 28.375-15.982 61.926-57.68 87.083-93.13-3.6425-1.3996-6.8352-3.7531-9.0334-7.5215-1.345-2.2039-2.4436-5.7112-3.0616-1.0962-2.2403 7.9418-11.004 13.285-18.558 11.074-7.4106-1.7125-14.028-6.1557-19.049-11.792 2.1547 8.3547-2.5239 19.955-12.359 20.523-6.7112 1.0185-13.566-2.2367-19.352-4.7622-0.047 6.8845 4.7741 15.998-2.23 21.355-9.8041 5.7891-21.521 0.39949-30.842-3.6284-0.8643-0.0118-4.6927-2.8563-4.9135-2.3434z" fill="url(#x)"/>
  </g>
  <g transform="matrix(.76604 .64279 -.64279 .76604 1371.6 386.47)">
   <path d="m1289.2-242.98c11.777 3.6522 23.184 7.9686 17.854 42.349 4.1865-11.932 31.934-16.781 40.503-11.042-3.809-21.337 6.2022-24.13 20.131-21.665-4.938-26.806 12.343-15.167 28.984-4.6354-11.884-34.682-4.8052-44.726 16.631-36.116-21.657-32.446-20.843-47.458 8.52-40.317-19.471-20.183-29.495-35.619-3.4343-32.929-21.354-15.127-18.077-20.913-12.418-25.796-17.851-25.772-5.3142-29.079-0.582-38.156-2.36 0.90843-12.592 6.253-25.62 13.214-10.844 5.7935-13.739 17.169-22.312 22.251-13.578 8.0494-34.034-13.084-32.697-10.571 26.498 49.829-22.101 28.072-22.101 28.072 22.051 26.869 17.559 40.228 7.3567 41.261-4.4402 0.44968-15.805-0.76595-14.083 1.4409 21.972 28.166-3.6587 36.742-15.721 31.385 14.252 4.745 37.336 30.673 8.989 41.254z" fill="#035c00"/>
   <path d="m1292.5-242.98c11.489 3.6522 22.618 7.9686 17.418 42.349 4.0844-11.932 31.155-16.781 39.515-11.042-3.7159-21.337 6.0508-24.13 19.64-21.665-4.8173-26.806 12.042-15.167 28.277-4.6354-11.594-34.682-4.6878-44.726 16.225-36.116-21.128-32.446-20.335-47.458 8.3122-40.317-18.996-20.183-28.775-35.619-3.3504-32.929-20.834-15.127-17.636-20.913-12.115-25.796-17.415-25.772-5.1846-29.079-0.5678-38.156-2.3025 0.90843-12.284 6.253-24.995 13.214-10.579 5.7935-13.404 17.169-21.768 22.251-13.246 8.0494-33.203-13.084-31.9-10.571 25.852 49.829-21.562 28.072-21.562 28.072 21.513 26.869 17.131 40.228 7.1771 41.261-4.3318 0.44968-15.419-0.76595-13.74 1.4409 21.436 28.166-3.5694 36.742-15.337 31.385 13.905 4.745 36.425 30.673 8.7697 41.254z" fill="url(#aq)"/>
   <path transform="matrix(1.7105 0 0 1.7105 -655.36 -10529)" d="m1197.7662,5927.2158c-.038,1.73-.043,3.4605-.039,5.1908-.041,1.9714.075,3.9482-.053,5.9164-.1256,2.0092-.6386,3.9526-1.1378,5.8923-.754,2.6508-1.4962,5.3019-2.3715,7.9159-.8802,2.889-1.9593,5.694-3.1648,8.4603-1.0089,2.3143-1.9643,4.6471-2.9943,6.9519-1.0844,2.6099-2.3686,5.1266-3.7325,7.5994-1.1683,2.1892-2.1821,4.4537-3.2707,6.6826-.943,1.7198-1.9318,3.4221-2.7437,5.2092-.4556,1.1497-1.2219,2.1245-1.8639,3.1671-.7658,1.4176-1.6112,2.7735-2.5955,4.0498-1.1369,1.3981-2.0242,2.9749-3.0024,4.4847-.9649,1.4166-1.7383,2.948-2.4312,4.5122-.6791,1.5224-1.38,3.027-1.9849,4.5813-.5491,1.368-1.1942,2.6915-1.7759,4.0447-.5741,1.4877-1.2417,2.9383-1.7998,4.4334-.7373,1.3922-1.187,2.9177-1.9057,4.3147-.5219,1.0491-1.0234,2.1155-1.487,3.1932-.1523.5453-.4359,1.0375-.6945,1.5366l-3.4619-.1662c.2569-.4915.5546-.9675.6933-1.5104 .4629-1.0895.9796-2.1615 1.4932-3.2245 .77-1.3571 1.1827-2.8968 1.9448-4.2639 .544-1.5027 1.1932-2.9638 1.7695-4.4528 .5804-1.3523 1.2291-2.6729 1.7937-4.0326 .6112-1.558 1.2886-3.0772 1.9892-4.5962 .697-1.5794 1.4584-3.1351 2.4275-4.5686 .999-1.5088 1.8911-3.0924 3.012-4.5139 .9995-1.2454 1.8188-2.5935 2.5586-4.0068 .6046-1.0559 1.4195-1.9926 1.8865-3.1294 .8264-1.7899 1.8234-3.4997 2.79-5.2161 1.1-2.234 2.1147-4.5087 3.3032-6.698 1.3679-2.4556 2.6524-4.9609 3.7004-7.5722 1.0356-2.3058 2.0029-4.6371 3.0294-6.9474 1.2063-2.7556 2.3095-5.5398 3.155-8.4314 .8814-2.6 1.6269-5.2385 2.3303-7.8918 .4883-1.9207.9999-3.8411 1.115-5.8304 .1394-1.9607.04-3.9289.067-5.8931 0-1.7303 0-3.4608-.039-5.1908h3.4911z" fill="#004100" filter="url(#l)"/>
   <path d="m1394-402.77c-3.8565 2.058-7.9678 4.3078-13.007 7.0562-10.464 5.7071-13.299 16.898-21.572 21.905-13.103 7.9297-32.802-12.902-31.513-10.426 25.572 49.088-21.361 27.645-21.361 27.645 21.28 26.469 16.984 39.633 7.1379 40.651-4.2849 0.44301-15.303-0.75243-13.641 1.4216 20.45 26.761-1.8008 35.579-13.853 31.436 13.785 5.7578 33.903 30.027 7.4022 40.125 1.912 0.60517 3.7882 1.2208 5.6049 2.0009 26.242-17.285 50.622-38.82 67.784-65.295 26.139-40.324 32.262-66.319 30.667-82.934-0.017-0.053-0.043-0.10434-0.053-0.15737-0.142-0.81469-0.2309-1.5846-0.2643-2.3168-0.017-0.0684 0.017-0.14197 0-0.21073-0.6621-4.2762-1.8596-7.9006-3.3311-10.9z" fill="url(#ap)"/>
  </g>
  <g transform="matrix(.85681 -.85681 .85681 .85681 -3373.5 -2961.5)">
   <path d="m1262.2 5827.6a24.749 24.496 0 1 1 -49.497 0 24.749 24.496 0 1 1 49.497 0z" fill="#800000"/>
   <path d="m1262.2 5827.6a24.749 24.496 0 1 1 -49.497 0 24.749 24.496 0 1 1 49.497 0z" fill="url(#b)"/>
   <path d="m1236.3 5804.6c-3.8966 0.4148-7.99 1.0217-11.031 3.6874 0.178 14.298 15.827 25.647 29.5 21.219 1.969-0.7446 4.9542-1.1862 5.875-3.1562-0.4196-12.204-12.025-22.666-24.344-21.75z" fill="url(#c)"/>
  </g>
  <g transform="matrix(.90917 -.90917 .87444 .87444 -3541.9 -3049.6)">
   <path d="m1262.2 5827.6a24.749 24.496 0 1 1 -49.497 0 24.749 24.496 0 1 1 49.497 0z" fill="#800000"/>
   <path d="m1262.2 5827.6a24.749 24.496 0 1 1 -49.497 0 24.749 24.496 0 1 1 49.497 0z" fill="url(#b)"/>
   <path d="m1236.3 5804.6c-3.8966 0.4148-7.99 1.0217-11.031 3.6874 0.178 14.298 15.827 25.647 29.5 21.219 1.969-0.7446 4.9542-1.1862 5.875-3.1562-0.4196-12.204-12.025-22.666-24.344-21.75z" fill="url(#c)"/>
  </g>
  <g transform="matrix(.85681 -.85681 .85681 .85681 -3335.5 -2990.8)">
   <path d="m1262.2 5827.6a24.749 24.496 0 1 1 -49.497 0 24.749 24.496 0 1 1 49.497 0z" fill="#800000"/>
   <path d="m1262.2 5827.6a24.749 24.496 0 1 1 -49.497 0 24.749 24.496 0 1 1 49.497 0z" fill="url(#b)"/>
   <path d="m1236.3 5804.6c-3.8966 0.4148-7.99 1.0217-11.031 3.6874 0.178 14.298 15.827 25.647 29.5 21.219 1.969-0.7446 4.9542-1.1862 5.875-3.1562-0.4196-12.204-12.025-22.666-24.344-21.75z" fill="url(#c)"/>
  </g>
  <g transform="translate(-303.35 606.03)">
   <path d="m2430 341.13c2.5041-12.073 4.248-24.144-28.417-36.12 12.468 2.1116 30.14-19.823 29.266-30.099 16.828 13.66 24.117 6.2512 28.702-7.1302 21.067 17.295 19.246-3.4607 18.084-23.12 24.597 27.185 36.813 25.852 39.653 2.926 17.911 34.655 31.441 41.209 39.404 12.058 8.2373 26.807 16.894 43.05 27.153 18.943 2.9014 26.008 9.5511 25.941 16.563 23.352 13.913 28.094 22.874 18.725 33.107 18.977-1.9371 1.6254-11.566 7.9921-23.963 16.024-10.318 6.6848-21.673 3.713-30.27 8.7551-13.615 7.9854-5.0231 36.114-6.5752 33.729-30.779-47.305-35.262 5.7531-35.262 5.7531-12.84-32.301-26.704-34.836-32.546-26.408-2.5424 3.6678-6.9792 14.201-8.0771 11.626-14.013-32.859-33.923-14.581-35.073-1.4333 2.7458-14.768-8.7703-47.517-31.749-27.832z" fill="#035c00"/>
   <path transform="matrix(1.3103 -1.0995 1.0995 1.3103 -5446.9 -6102.1)" d="m1121.4775,5829.4287c1.2852.8159 2.4608,1.7469 3.5893,2.7667 1.2773,1.2125 2.8525,2.0069 4.2198,3.0917 1.4069,1.2621 2.6346,2.7071 3.883,4.1224 1.815,1.9914 3.8363,3.7785 5.6564,5.763 1.8552,2.0869 3.577,4.2918 5.2295,6.5416 1.3563,1.8324 2.8756,3.5417 4.4127,5.2238 1.4581,1.4881 2.6475,3.2052 3.9472,4.8254 1.3176,1.8171 2.5771,3.6711 3.8254,5.5364 1.3984,1.9498 2.7806,3.906 4.1708,5.862 1.4349,2.2007 3.0647,4.2526 4.7593,6.255 1.7376,1.93 3.5707,3.7701 5.5134,5.4935 1.9598,1.6215 4.033,3.0974 6.1048,4.5706 1.9535,1.3499 3.6904,2.9698 5.5397,4.4547 1.4005,1.0854 2.7397,2.2716 4.2676,3.1773 .9202.8786 2.1454,1.175 3.2298,1.7438 1.297.4963 2.4701,1.1053 3.5779,1.9477 1.0205.6739 2.0101,1.3993 2.9627,2.1661l-3.4205.3072c-.9531-.7593-1.9379-1.4802-2.9549-2.1521-1.1285-.7957-2.3404-1.3498-3.6097-1.882-1.1272-.5042-2.2513-.9772-3.2144-1.7807-1.4922-.9603-2.8413-2.1265-4.2329-3.2235-1.8338-1.4819-3.5469-3.1116-5.5024-4.4381-2.0764-1.4841-4.1714-2.9491-6.1149-4.6074-1.9349-1.7497-3.785-3.5893-5.5175-5.5408-1.69-2.0165-3.3084-4.0912-4.7693-6.2821l-4.1745-5.87c-1.2607-1.8514-2.4954-3.7201-3.8459-5.5084-1.2811-1.6235-2.4848-3.3163-3.9299-4.8035-1.5397-1.69-3.0566-3.4115-4.4022-5.2617-1.6284-2.2466-3.3436-4.437-5.1951-6.5046-1.8468-1.9748-3.879-3.7662-5.7017-5.7662-1.257-1.3979-2.4868-2.8376-3.923-4.0565-1.3883-1.0561-2.9214-1.9133-4.2023-3.1169-1.1475-1.0134-2.3653-1.915-3.6617-2.7304l3.4835-.324z" fill="#004100" filter="url(#r)"/>
   <path transform="matrix(1.2869 -1.0798 1.2425 1.4807 -6254.6 -7125.3)" d="m1129.2 5824c-0.128-0.01-0.2548 0.058-0.4245 0.1775-4.1774 2.4762-9.6078 3.3869-14.647 3.1944 6.5191 14.157 15.678 29.173 28.051 39.901 15.481 13.421 34.266 26.377 53.373 37.091h0.03c0.9418 0.089 1.554 0.062 1.3647-0.2662-4.8196-3.5885-4.2786-9.7334-2.9417-14.671 0.1505-1.2804-2.3367-1.3695-2.6686-2.7212-2.5373-3.5661 0.4831-7.7138 2.0016-10.47-3.2861 1.0616-7.8751-0.4799-7.4905-3.9635-0.4077-4.2628 1.7169-8.2199 3.3054-12.127-3.6783 2.1502-10.279 2.9931-12.282-1.4197-2.6359-5.1012-0.9402-11.285 0.091-16.357-3.4696 3.1006-10.804 2.7964-12.525-1.7155-2.373-3.6701-2.7353-8.0421-3.1235-12.216-2.9874 3.3977-6.2198 8.3572-11.857 7.8973-3.0116-0.7713-3.842-3.8733-4.8219-6.1818-4.3456 2.4946-11.621 2.1065-13.616-2.6323-0.9055-0.569-0.9239-3.4525-1.8196-3.5199z" fill="url(#p)" filter="url(#q)"/>
   <g transform="matrix(.81915 -.57358 .57358 .81915 654.42 2206.9)">
    <path d="m2803.2-180.24c7.4598-9.8175 15.418-19.061 45.901-2.2934-9.7805-8.0151-4.8465-35.748 3.4772-41.837-21.353-3.7183-20.553-14.081-13.473-26.327-26.878-4.528-10.03-16.786 5.5573-28.822-36.654-0.69486-43.672-10.782-28.249-27.981-37.897 9.2536-51.724 3.3549-34.972-21.795-25.625 11.394-43.559 15.534-32.118-8.0352-21.518 14.893-25.835 9.8341-28.488 2.8466-30.323 7.9594-29.143-4.9519-36.054-12.503 0.047 2.5283 1.5692 13.971 3.6543 28.595 1.7354 12.171 11.434 18.782 13.278 28.577 2.9202 15.512-23.935 27.506-21.116 27.11 55.887-7.8577 18.82 30.37 18.82 30.37 32.79-11.532 43.807-2.7416 41.289 7.199-1.0961 4.3262-6.1253 14.59-3.463 13.727 33.982-11.014 33.275 16.005 24.116 25.507 9.3335-11.77 41.592-24.593 41.84 5.6626z" fill="#035c00"/>
    <path d="m2804.3-183.28c7.3614-9.5474 15.224-18.529 45.752-1.8839-9.8156-7.9191-5.113-35.016 3.1392-40.908-21.321-3.8058-20.605-13.939-13.641-25.865-26.837-4.6413-10.133-16.503 5.3156-28.157-36.555-0.96741-43.632-10.892-28.388-27.599-37.716 8.7568-51.55 2.8768-35.043-21.6-25.463 10.948-43.313 14.857-32.089-8.1139-21.34 14.403-25.684 9.4196-28.384 2.5618-30.174 7.5502-29.099-5.0737-36.049-12.516 0.066 2.4743 1.6744 13.682 3.8682 28.007 1.8259 11.922 11.549 18.467 13.464 28.065 3.0336 15.2-23.651 26.726-20.844 26.36 55.665-7.25 19.005 29.863 19.005 29.863 32.606-11.026 43.661-2.3391 41.227 7.3677-1.059 4.2243-5.9934 14.227-3.3455 13.404 33.798-10.51 33.306 15.921 24.247 25.146 9.2144-11.443 41.281-23.737 41.765 5.8687z" fill="url(#aa)"/>
    <path transform="matrix(.58501 -1.6073 1.6073 .58501 -7527.4 -1870.9)" d="m1197.7662,5927.2158c-.038,1.73-.043,3.4605-.039,5.1908-.041,1.9714.075,3.9482-.053,5.9164-.1256,2.0092-.6386,3.9526-1.1378,5.8923-.754,2.6508-1.4962,5.3019-2.3715,7.9159-.8802,2.889-1.9593,5.694-3.1648,8.4603-1.0089,2.3143-1.9643,4.6471-2.9943,6.9519-1.0844,2.6099-2.3686,5.1266-3.7325,7.5994-1.1683,2.1892-2.1821,4.4537-3.2707,6.6826-.943,1.7198-1.9318,3.4221-2.7437,5.2092-.4556,1.1497-1.2219,2.1245-1.8639,3.1671-.7658,1.4176-1.6112,2.7735-2.5955,4.0498-1.1369,1.3981-2.0242,2.9749-3.0024,4.4847-.9649,1.4166-1.7383,2.948-2.4312,4.5122-.6791,1.5224-1.38,3.027-1.9849,4.5813-.5491,1.368-1.1942,2.6915-1.7759,4.0447-.5741,1.4877-1.2417,2.9383-1.7998,4.4334-.7373,1.3922-1.187,2.9177-1.9057,4.3147-.5219,1.0491-1.0234,2.1155-1.487,3.1932-.1523.5453-.4359,1.0375-.6945,1.5366l-3.4619-.1662c.2569-.4915.5546-.9675.6933-1.5104 .4629-1.0895.9796-2.1615 1.4932-3.2245 .77-1.3571 1.1827-2.8968 1.9448-4.2639 .544-1.5027 1.1932-2.9638 1.7695-4.4528 .5804-1.3523 1.2291-2.6729 1.7937-4.0326 .6112-1.558 1.2886-3.0772 1.9892-4.5962 .697-1.5794 1.4584-3.1351 2.4275-4.5686 .999-1.5088 1.8911-3.0924 3.012-4.5139 .9995-1.2454 1.8188-2.5935 2.5586-4.0068 .6046-1.0559 1.4195-1.9926 1.8865-3.1294 .8264-1.7899 1.8234-3.4997 2.79-5.2161 1.1-2.234 2.1147-4.5087 3.3032-6.698 1.3679-2.4556 2.6524-4.9609 3.7004-7.5722 1.0356-2.3058 2.0029-4.6371 3.0294-6.9474 1.2063-2.7556 2.3095-5.5398 3.155-8.4314 .8814-2.6 1.6269-5.2385 2.3303-7.8918 .4883-1.9207.9999-3.8411 1.115-5.8304 .1394-1.9607.04-3.9289.067-5.8931 0-1.7303 0-3.4608-.039-5.1908h3.4911z" fill="#004100" filter="url(#l)"/>
    <path d="m2688.9-333.37c0.6149 4.3279 1.3227 8.9607 2.1819 14.636 1.784 11.785 11.331 18.276 13.206 27.763 2.9701 15.025-23.342 26.411-20.576 26.046 54.873-7.2407 18.672 29.528 18.672 29.528 32.151-10.944 43.052-2.4044 40.641 7.196-1.0493 4.178-5.941 14.122-3.3297 13.305 32.141-10.064 32.817 13.861 24.802 23.769 10.125-10.985 39.812-21.589 40.236 6.7676 1.2226-1.5897 2.4427-3.1422 3.7972-4.5825-7.2673-30.572-19.165-60.847-38.174-86.028-28.952-38.354-51.285-52.999-67.444-57.183-0.055-2e-3 -0.1128 5e-3 -0.1661-4e-3 -0.8142-0.14519-1.5679-0.32499-2.2675-0.54403-0.07-8e-3 -0.1278-0.0645-0.1979-0.0721-4.2447-0.84036-8.0603-0.95467-11.382-0.59771z" fill="url(#z)"/>
   </g>
   <g transform="translate(-86.683 657.58)">
    <path d="m2803.2-180.24c7.4598-9.8175 15.418-19.061 45.901-2.2934-9.7805-8.0151-4.8465-35.748 3.4772-41.837-21.353-3.7183-20.553-14.081-13.473-26.327-26.878-4.528-10.03-16.786 5.5573-28.822-36.654-0.69486-43.672-10.782-28.249-27.981-37.897 9.2536-51.724 3.3549-34.972-21.795-25.625 11.394-43.559 15.534-32.118-8.0352-21.518 14.893-25.835 9.8341-28.488 2.8466-30.323 7.9594-29.143-4.9519-36.054-12.503 0.047 2.5283 1.5692 13.971 3.6543 28.595 1.7354 12.171 11.434 18.782 13.278 28.577 2.9202 15.512-23.935 27.506-21.116 27.11 55.887-7.8577 18.82 30.37 18.82 30.37 32.79-11.532 43.807-2.7416 41.289 7.199-1.0961 4.3262-6.1253 14.59-3.463 13.727 33.982-11.014 33.275 16.005 24.116 25.507 9.3335-11.77 41.592-24.593 41.84 5.6626z" fill="#035c00"/>
    <path d="m2804.3-183.28c7.3614-9.5474 15.224-18.529 45.752-1.8839-9.8156-7.9191-5.113-35.016 3.1392-40.908-21.321-3.8058-20.605-13.939-13.641-25.865-26.837-4.6413-10.133-16.503 5.3156-28.157-36.555-0.96741-43.632-10.892-28.388-27.599-37.716 8.7568-51.55 2.8768-35.043-21.6-25.463 10.948-43.313 14.857-32.089-8.1139-21.34 14.403-25.684 9.4196-28.384 2.5618-30.174 7.5502-29.099-5.0737-36.049-12.516 0.066 2.4743 1.6744 13.682 3.8682 28.007 1.8259 11.922 11.549 18.467 13.464 28.065 3.0336 15.2-23.651 26.726-20.844 26.36 55.665-7.25 19.005 29.863 19.005 29.863 32.606-11.026 43.661-2.3391 41.227 7.3677-1.059 4.2243-5.9934 14.227-3.3455 13.404 33.798-10.51 33.306 15.921 24.247 25.146 9.2144-11.443 41.281-23.737 41.765 5.8687z" fill="url(#aa)"/>
    <path transform="matrix(.58501 -1.6073 1.6073 .58501 -7527.4 -1870.9)" d="m1197.7662,5927.2158c-.038,1.73-.043,3.4605-.039,5.1908-.041,1.9714.075,3.9482-.053,5.9164-.1256,2.0092-.6386,3.9526-1.1378,5.8923-.754,2.6508-1.4962,5.3019-2.3715,7.9159-.8802,2.889-1.9593,5.694-3.1648,8.4603-1.0089,2.3143-1.9643,4.6471-2.9943,6.9519-1.0844,2.6099-2.3686,5.1266-3.7325,7.5994-1.1683,2.1892-2.1821,4.4537-3.2707,6.6826-.943,1.7198-1.9318,3.4221-2.7437,5.2092-.4556,1.1497-1.2219,2.1245-1.8639,3.1671-.7658,1.4176-1.6112,2.7735-2.5955,4.0498-1.1369,1.3981-2.0242,2.9749-3.0024,4.4847-.9649,1.4166-1.7383,2.948-2.4312,4.5122-.6791,1.5224-1.38,3.027-1.9849,4.5813-.5491,1.368-1.1942,2.6915-1.7759,4.0447-.5741,1.4877-1.2417,2.9383-1.7998,4.4334-.7373,1.3922-1.187,2.9177-1.9057,4.3147-.5219,1.0491-1.0234,2.1155-1.487,3.1932-.1523.5453-.4359,1.0375-.6945,1.5366l-3.4619-.1662c.2569-.4915.5546-.9675.6933-1.5104 .4629-1.0895.9796-2.1615 1.4932-3.2245 .77-1.3571 1.1827-2.8968 1.9448-4.2639 .544-1.5027 1.1932-2.9638 1.7695-4.4528 .5804-1.3523 1.2291-2.6729 1.7937-4.0326 .6112-1.558 1.2886-3.0772 1.9892-4.5962 .697-1.5794 1.4584-3.1351 2.4275-4.5686 .999-1.5088 1.8911-3.0924 3.012-4.5139 .9995-1.2454 1.8188-2.5935 2.5586-4.0068 .6046-1.0559 1.4195-1.9926 1.8865-3.1294 .8264-1.7899 1.8234-3.4997 2.79-5.2161 1.1-2.234 2.1147-4.5087 3.3032-6.698 1.3679-2.4556 2.6524-4.9609 3.7004-7.5722 1.0356-2.3058 2.0029-4.6371 3.0294-6.9474 1.2063-2.7556 2.3095-5.5398 3.155-8.4314 .8814-2.6 1.6269-5.2385 2.3303-7.8918 .4883-1.9207.9999-3.8411 1.115-5.8304 .1394-1.9607.04-3.9289.067-5.8931 0-1.7303 0-3.4608-.039-5.1908h3.4911z" fill="#004100" filter="url(#l)"/>
    <path d="m2688.9-333.37c0.6149 4.3279 1.3227 8.9607 2.1819 14.636 1.784 11.785 11.331 18.276 13.206 27.763 2.9701 15.025-23.342 26.411-20.576 26.046 54.873-7.2407 18.672 29.528 18.672 29.528 32.151-10.944 43.052-2.4044 40.641 7.196-1.0493 4.178-5.941 14.122-3.3297 13.305 32.141-10.064 32.817 13.861 24.802 23.769 10.125-10.985 39.812-21.589 40.236 6.7676 1.2226-1.5897 2.4427-3.1422 3.7972-4.5825-7.2673-30.572-19.165-60.847-38.174-86.028-28.952-38.354-51.285-52.999-67.444-57.183-0.055-2e-3 -0.1128 5e-3 -0.1661-4e-3 -0.8142-0.14519-1.5679-0.32499-2.2675-0.54403-0.07-8e-3 -0.1278-0.0645-0.1979-0.0721-4.2447-0.84036-8.0603-0.95467-11.382-0.59771z" fill="url(#z)"/>
   </g>
   <g transform="matrix(.99619 .08716 -.08716 .99619 -94.722 422.21)">
    <path d="m2903-411.52c1.4104 12.249 3.5421 24.258 38.315 25.38-12.501 1.9069-22.399 28.279-18.344 37.762-20.264-7.6905-24.86 1.6312-25.015 15.776-25.43-9.8118-17.188 9.3245-9.9171 27.626-31.885-18.094-43.065-12.996-38.569 9.6628-27.88-27.285-42.783-29.263-41.198 0.9144-16.232-22.869-29.548-35.575-31.725-9.4667-10.915-23.784-17.208-21.634-23.054-16.976-22.025-22.31-27.594-10.602-37.39-7.6307 1.3292-2.1512 8.4744-11.217 17.725-22.733 7.6993-9.5845 19.414-10.326 25.995-17.811 10.422-11.854-6.5617-35.866-4.3395-34.088 44.067 35.259 31.676-16.527 31.676-16.527 22.326 26.641 36.285 24.698 39.188 14.863 1.2632-4.2805 2.1709-15.674 4.0214-13.574 23.615 26.803 36.784 3.2016 33.751-9.6434 2.0265 14.884 23.236 42.366 38.879 16.466z" fill="#035c00"/>
    <path d="m2790.7-411.34c0.7439 7.8686 2.3852 18.921-5.732 23.88-9.5375 3.1308-18.19-4.2138-25.55-9.0076 4.6205 9.2446 10.063 22.035 2.4663 31.09-7.9391 8.121-21.367 9.7069-27.644 19.561-4.8245 6.0238-9.8796 11.883-14.506 18.044 6.0869-3.6877 13.553-6.7229 20.187-3.1256 5.5751 2.5682 10.241 6.5926 14.565 10.872 4.4495-4.474 11.427-2.7172 14.567 1.8962 3.1762 3.729 5.3943 8.1287 7.6324 12.447 0.4802-4.9613 2.7004-13.168 9.3662-11.913 9.6592 3.5738 15.314 13.336 21.6 21.025 0.2255-6.7734 0.1233-16.413 8.045-19.3 9.7222-1.4544 17.553 6.0628 24.744 11.327 2.4485 0.96878 8.5595 9.8978 7.5827 4.685-1.2215-6.463 1.174-15.635 9.1607-16.208 10.476-0.75816 20.111 4.7189 29.206 9.1321-2.605-7.9241-7.9929-16.556-5.4669-25.004 3.2976-6.0102 11.905-2.674 16.484-1.4558-0.092-7.0464 2.7005-16.586 11.16-17.551 4.3815-1.0875 10.105 1.3128 13.301 1.4578-1.1746-11.77 4.2381-24.219 12.878-32.586 5.7643-2.9878-1.4908-1.9557-4.3893-2.5835-10.95-1.048-23.89-5.5574-26.064-17.571-0.5099-2.531-0.3483-6.2143-2.5073-2.0889-4.8215 6.6966-14.881 8.7268-21.224 4.066-6.3779-4.1438-11.078-10.585-13.868-17.599-0.8326 8.5878-9.1839 17.915-18.621 15.085-6.6548-1.3384-11.98-6.7357-16.553-11.088-2.3988 6.4534-0.9861 16.665-9.3999 19.303-11.193 2.0868-20.371-7.01-27.752-13.983-0.9946-0.37757-4.7314-6.3318-3.6674-2.8057z" fill="url(#aw)"/>
    <path transform="matrix(1.5502 -.72287 .72287 1.5502 -3423.1 -8624.7)" d="m1217.3234,5913.4477c.4248.011.8501-.01 1.2748,0 1.4501.042 2.9014.061 4.3497.1445 1.2825.074 2.5933.5178 3.8398.7949 3.6116.7482 7.1813,1.6884 10.7418,2.6477 2.5653.677 4.986,1.7635 7.5216,2.5294 2.4822.8232 5.0021,1.5238 7.3771,2.6312 2.0301.9851 4.1046,1.8542 6.2067,2.6719 2.1738.845 4.2978,1.7981 6.4975,2.576 2.3291,1.0554 4.706,1.9831 7.1568,2.7143 2.7915.8737 5.6091,1.6543 8.3909,2.5603 2.6814.8005 5.43,1.341 8.183,1.8274 2.469.472 4.9862.4667 7.4807.6769 2.1611.2433 4.332.3486 6.5047.4096 1.9561.044 3.9128.046 5.8693.044h1.2101c3.5194.093 7.0856-.2476 10.5748.3136 .8501.1567 1.7012.3058 2.5545.4435l-3.4095.4824c-.8383-.1444-1.6748-.2988-2.5127-.4453-2.1035-.3123-.7909-.047 1.0876-.2632 .414-.048-.8333-.0006-1.25-.0005h-3.6689c-2.6606,0-5.3213.01-7.982,0-1.9447,0-3.8897-.01-5.834-.06-2.1709-.069-4.3386-.1905-6.4984-.4277-2.4903-.1877-4.9979-.2291-7.4577-.7135-2.7538-.5006-5.5059-1.0414-8.1821-1.8738-2.7866-.9-5.6069-1.6828-8.4028-2.5523-2.4516-.7572-4.8275-1.702-7.178-2.7278-2.1981-.7886-4.3228-1.752-6.5037-2.5853-2.1007-.8208-4.1728-1.7025-6.2006-2.692-2.3793-1.0623-4.8809-1.7809-7.354-2.5899-2.5189-.7905-4.9485-1.8376-7.5029-2.5211-3.5531-.9851-7.1257-1.9142-10.7439-2.6305l-2.7417-.5937c-.383-.069-1.5372-.085-1.1559-.1619 3.4575-.6987 2.9143.089 1.2128-.093l-3.4554-.5473z" fill="#004100" filter="url(#m)"/>
    <path d="m2790.5-412.41c-0.088 0.0939-0.06 0.39515 0.1387 1.056 0.7439 7.8686 2.3945 18.941-5.7228 23.9-9.5375 3.1307-18.195-4.2264-25.556-9.0202 4.6204 9.2446 10.071 22.051 2.4741 31.107-7.9391 8.121-21.351 9.694-27.628 19.548-4.1591 5.1927-8.493 10.288-12.572 15.535 0.8797 0.0277 1.7518 0.0486 2.6284 0.0718 5.0317-2.301 10.569-3.4066 15.61-0.67344 0.5694 0.26221 1.1248 0.51971 1.6758 0.81087 19.832-0.15665 38.471-1.5414 54.926-4.2622 32.13-5.3129 77.919-33.021 113.68-57.73-2.9441-2.561-5.1394-5.8646-5.9161-10.158-0.51-2.531-0.343-6.2025-2.5019-2.0772-4.8216 6.6966-14.884 8.7201-21.226 4.0593-6.378-4.1438-11.077-10.582-13.867-17.597-0.8327 8.5879-9.1966 17.888-18.633 15.058-6.6548-1.3383-11.982-6.7415-16.556-11.094-2.3989 6.4532-0.9855 16.666-9.3992 19.304-11.193 2.0867-20.36-6.9852-27.741-13.958-0.8081-0.30672-3.4328-4.2891-3.8158-3.8826z" fill="url(#av)"/>
   </g>
   <g transform="matrix(.92822 -.77887 .77887 .92822 -3082.9 -4089)">
    <path d="m1262.2 5827.6a24.749 24.496 0 1 1 -49.497 0 24.749 24.496 0 1 1 49.497 0z" fill="#800000"/>
    <path d="m1262.2 5827.6a24.749 24.496 0 1 1 -49.497 0 24.749 24.496 0 1 1 49.497 0z" fill="url(#b)"/>
    <path d="m1236.3 5804.6c-3.8966 0.4148-7.99 1.0217-11.031 3.6874 0.178 14.298 15.827 25.647 29.5 21.219 1.969-0.7446 4.9542-1.1862 5.875-3.1562-0.4196-12.204-12.025-22.666-24.344-21.75z" fill="url(#c)"/>
   </g>
   <g transform="matrix(.98495 -.82647 .7949 .94733 -3243 -4191.4)">
    <path d="m1262.2 5827.6a24.749 24.496 0 1 1 -49.497 0 24.749 24.496 0 1 1 49.497 0z" fill="#800000"/>
    <path d="m1262.2 5827.6a24.749 24.496 0 1 1 -49.497 0 24.749 24.496 0 1 1 49.497 0z" fill="url(#b)"/>
    <path d="m1236.3 5804.6c-3.8966 0.4148-7.99 1.0217-11.031 3.6874 0.178 14.298 15.827 25.647 29.5 21.219 1.969-0.7446 4.9542-1.1862 5.875-3.1562-0.4196-12.204-12.025-22.666-24.344-21.75z" fill="url(#c)"/>
   </g>
   <g transform="matrix(.92822 -.77887 .77887 .92822 -3042.5 -4114.9)">
    <path d="m1262.2 5827.6a24.749 24.496 0 1 1 -49.497 0 24.749 24.496 0 1 1 49.497 0z" fill="#800000"/>
    <path d="m1262.2 5827.6a24.749 24.496 0 1 1 -49.497 0 24.749 24.496 0 1 1 49.497 0z" fill="url(#b)"/>
    <path d="m1236.3 5804.6c-3.8966 0.4148-7.99 1.0217-11.031 3.6874 0.178 14.298 15.827 25.647 29.5 21.219 1.969-0.7446 4.9542-1.1862 5.875-3.1562-0.4196-12.204-12.025-22.666-24.344-21.75z" fill="url(#c)"/>
   </g>
  </g>
  <g transform="translate(11.635 1203)">
   <path d="m2000.7-178.67c6.6741 10.368 12.638 21.007-13.544 43.917 10.877-6.4493 35.25 7.6724 38.125 17.577 10.797-18.793 20.261-14.498 29.347-3.6564 13.448-23.709 19.205-3.6842 25.183 15.08 13.19-34.206 25.068-37.351 35.955-16.976 4.2658-38.776 14.538-49.753 32.442-25.408-1.9425-27.977 0.3012-46.245 18.536-27.432-6.6353-25.314-0.4053-27.64 7.0684-27.743 2.8916-31.217 14.621-25.692 24.08-29.603-2.3918-0.82105-13.665-3.3036-28.12-6.346-12.03-2.532-21.56 4.3209-31.395 2.7034-15.575-2.5611-17.661-31.899-18.253-29.115-11.731 55.204-34.975 7.2983-34.975 7.2983-0.3788 34.757-12.407 42.103-20.886 36.336-3.6906-2.5096-11.615-10.746-11.715-7.9489-1.2733 35.699-26.42 25.794-32.217 13.937 7.8678 12.796 8.8847 47.496-19.631 37.38z" fill="#035c00"/>
   <path d="m2003.2-176.59c6.4536 10.183 12.204 20.643-13.878 43.637 10.799-6.5151 34.653 7.1715 37.368 16.941 10.869-18.733 20.145-14.595 28.971-3.9722 13.541-23.631 18.974-3.8779 24.641 14.625 13.412-34.02 25.158-37.275 35.644-17.237 4.671-38.436 14.928-49.426 32.283-25.542-1.5785-27.671 0.8526-45.783 18.6-27.379-6.2363-24.98-0.067-27.357 7.3008-27.549 3.2254-30.937 14.72-25.608 24.091-29.594-2.3474-0.78396-13.429-3.106-27.641-5.944-11.828-2.3618-21.304 4.5364-30.978 3.0535-15.322-2.3484-17.025-31.365-17.642-28.602-12.226 54.788-34.562 7.6451-34.562 7.6451-0.791 34.411-12.735 41.828-21.024 36.221-3.6074-2.4398-11.32-10.498-11.452-7.728-1.6836 35.355-26.352 25.852-31.923 14.184 7.6015 12.573 8.1868 46.91-19.799 37.239z" fill="url(#au)"/>
   <path transform="matrix(1.3103 1.0995 -1.0995 1.3103 7122.7 -9308.1)" d="m1197.7662,5927.2158c-.038,1.73-.043,3.4605-.039,5.1908-.041,1.9714.075,3.9482-.053,5.9164-.1256,2.0092-.6386,3.9526-1.1378,5.8923-.754,2.6508-1.4962,5.3019-2.3715,7.9159-.8802,2.889-1.9593,5.694-3.1648,8.4603-1.0089,2.3143-1.9643,4.6471-2.9943,6.9519-1.0844,2.6099-2.3686,5.1266-3.7325,7.5994-1.1683,2.1892-2.1821,4.4537-3.2707,6.6826-.943,1.7198-1.9318,3.4221-2.7437,5.2092-.4556,1.1497-1.2219,2.1245-1.8639,3.1671-.7658,1.4176-1.6112,2.7735-2.5955,4.0498-1.1369,1.3981-2.0242,2.9749-3.0024,4.4847-.9649,1.4166-1.7383,2.948-2.4312,4.5122-.6791,1.5224-1.38,3.027-1.9849,4.5813-.5491,1.368-1.1942,2.6915-1.7759,4.0447-.5741,1.4877-1.2417,2.9383-1.7998,4.4334-.7373,1.3922-1.187,2.9177-1.9057,4.3147-.5219,1.0491-1.0234,2.1155-1.487,3.1932-.1523.5453-.4359,1.0375-.6945,1.5366l-3.4619-.1662c.2569-.4915.5546-.9675.6933-1.5104 .4629-1.0895.9796-2.1615 1.4932-3.2245 .77-1.3571 1.1827-2.8968 1.9448-4.2639 .544-1.5027 1.1932-2.9638 1.7695-4.4528 .5804-1.3523 1.2291-2.6729 1.7937-4.0326 .6112-1.558 1.2886-3.0772 1.9892-4.5962 .697-1.5794 1.4584-3.1351 2.4275-4.5686 .999-1.5088 1.8911-3.0924 3.012-4.5139 .9995-1.2454 1.8188-2.5935 2.5586-4.0068 .6046-1.0559 1.4195-1.9926 1.8865-3.1294 .8264-1.7899 1.8234-3.4997 2.79-5.2161 1.1-2.234 2.1147-4.5087 3.3032-6.698 1.3679-2.4556 2.6524-4.9609 3.7004-7.5722 1.0356-2.3058 2.0029-4.6371 3.0294-6.9474 1.2063-2.7556 2.3095-5.5398 3.155-8.4314 .8814-2.6 1.6269-5.2385 2.3303-7.8918 .4883-1.9207.9999-3.8411 1.115-5.8304 .1394-1.9607.04-3.9289.067-5.8931 0-1.7303 0-3.4608-.039-5.1908h3.4911z" fill="#004100" filter="url(#l)"/>
   <path d="m2183.7-233.71c-4.2773-0.90251-8.873-1.8218-14.5-2.9554-11.685-2.3546-21.05 4.3966-30.606 2.9138-15.134-2.3478-16.835-30.968-17.438-28.243-11.964 54.041-34.133 7.4468-34.133 7.4468-0.7123 33.955-12.465 41.278-20.662 35.728-3.5672-2.4149-11.239-10.413-11.364-7.6794-1.5358 33.645-24.249 26.097-30.819 15.177 6.8593 13.272 6.6706 44.795-20.121 35.495 1.0755 1.6924 2.1169 3.37 3.0073 5.1354 31.214 3.6271 63.732 2.8017 93.896-6.4479 45.943-14.088 67.343-30.066 76.801-43.819 0.015-0.0566 0.039-0.10581 0.057-0.15559 0.4135-0.71615 0.8418-1.3622 1.287-1.9445 0.039-0.0592 0.1012-0.10088 0.1363-0.16094 2.241-3.7016 3.654-7.2475 4.4546-10.491z" fill="url(#at)"/>
  </g>
  <g transform="translate(1105.6 1358.8)">
   <path d="m871.22-529.11c10.858-5.8423 21.226-12.266 9.4039-44.986 6.3965 10.908 34.559 10.347 41.869 3.0714 0.35245 21.671 10.713 22.493 23.911 17.404 0.29286 27.255 15.022 12.519 29.335-1.0076-5.0139 36.316 3.8589 44.818 23.247 32.257-15.035 35.997-11.358 50.573 16.092 37.936-15.241 23.541-22.119 40.614 2.9425 32.977-18.058 18.94-13.732 23.991-7.2422 27.698-12.579 28.716 0.3593 29.559 6.7438 37.56-2.4903-0.43911-13.557-3.723-27.678-8.0568-11.753-3.6071-16.776-14.216-26.164-17.561-14.869-5.2969-30.894 19.366-30.064 16.643 16.453-53.985-27.073-23.314-27.073-23.314 16.491-30.598 9.5208-42.848-0.69052-41.906-4.444 0.40998-15.365 3.7819-14.098 1.2858 16.164-31.855-10.635-35.359-21.446-27.789 13.078-7.3896 30.763-37.262 0.913-42.212z" fill="#035c00"/>
   <path d="m1215-348.49c-5.8706 10.843-11.012 21.903 16.828 42.767-11.334-5.6082-34.568 10.317-36.686 20.411-12.188-17.922-21.3-12.923-29.54-1.4255-15.203-22.623-19.428-2.2207-23.97 16.942-15.74-33.11-27.823-35.347-37.136-14.207-7.1875-38.342-18.261-48.51-34.272-22.881-0.1797-28.043-3.7992-46.09-20.558-25.951 4.7008-25.744-1.6873-27.592-9.1472-27.129-5.2455-30.909-16.523-24.512-26.251-27.697 2.3227-0.99972 13.376-4.328 27.559-8.4553 11.804-3.435 21.826 2.6771 31.51 0.32042 15.336-3.7324 15.197-33.144 15.998-30.413 15.874 54.158 35.427 4.6311 35.427 4.6311 3.0075 34.629 15.557 41.044 23.576 34.652 3.4901-2.7817 10.769-11.594 11.08-8.8124 3.9704 35.501 28.296 23.721 33.179 11.46-6.8772 13.355-5.2659 48.032 22.403 35.788z" fill="#035c00"/>
   <path d="m1122.9-412.77c-3.9039 6.8723-8.8987 16.867-18.393 16.274-9.6084-2.9058-12.483-13.885-15.763-22.034-1.5177 10.223-4.3951 23.822-15.812 26.882-11.161 2.0986-23.07-4.3039-33.864 0.16727-7.4072 2.1671-14.909 4.0676-22.233 6.4601 7.1014 0.47057 14.958 2.2667 18.329 9.0186 3.0939 5.3016 4.6077 11.274 5.6953 17.26 6.2111-1.1127 10.919 4.3284 10.845 9.9086 0.463 4.8764-0.2437 9.7527-0.8872 14.574 3.2394-3.7883 9.765-9.2377 14.506-4.3866 5.8625 8.4678 4.8951 19.707 5.634 29.612 4.0697-5.4192 9.5148-13.374 17.66-11.195 8.7983 4.385 10.901 15.035 13.772 23.471 1.45 2.198 1.3344 13.017 3.5242 8.187 2.7063-5.9948 9.9293-12.134 16.801-8.0225 9.0158 5.3874 13.767 15.4 18.686 24.232 2.4112-7.9852 2.9489-18.147 9.8633-23.617 6.1487-3.0318 11.286 4.6382 14.338 8.2622 3.966-5.825 11.726-12.038 19.209-7.9759 4.213 1.6224 7.5247 6.8715 10.059 8.8232 5.7886-10.315 17.363-17.408 29.24-19.307 6.4356 0.85877-0.099-2.4571-2.1137-4.6339-8.3682-7.1389-16.382-18.255-11.272-29.343 1.0339-2.3658 3.279-5.2903-0.8558-3.1494-7.7906 2.7201-17.195-1.3866-19.717-8.8425-2.8478-7.0527-3.0033-15.025-1.266-22.371-5.6079 6.5571-17.799 9.4074-23.906 1.6767-4.6836-4.9133-5.9499-12.389-7.1998-18.577-5.6665 3.9104-10.366 13.085-18.772 10.421-10.366-4.7105-12.666-17.427-14.713-27.372-0.5981-0.87976-0.2441-7.9006-1.3949-4.4019z" fill="url(#as)"/>
   <path transform="matrix(1.6845 .29702 -.29702 1.6845 743.88 -10705)" d="m1121.4775,5829.4287c1.2852.8159 2.4608,1.7469 3.5893,2.7667 1.2773,1.2125 2.8525,2.0069 4.2198,3.0917 1.4069,1.2621 2.6346,2.7071 3.883,4.1224 1.815,1.9914 3.8363,3.7785 5.6564,5.763 1.8552,2.0869 3.577,4.2918 5.2295,6.5416 1.3563,1.8324 2.8756,3.5417 4.4127,5.2238 1.4581,1.4881 2.6475,3.2052 3.9472,4.8254 1.3176,1.8171 2.5771,3.6711 3.8254,5.5364 1.3984,1.9498 2.7806,3.906 4.1708,5.862 1.4349,2.2007 3.0647,4.2526 4.7593,6.255 1.7376,1.93 3.5707,3.7701 5.5134,5.4935 1.9598,1.6215 4.033,3.0974 6.1048,4.5706 1.9535,1.3499 3.6904,2.9698 5.5397,4.4547 1.4005,1.0854 2.7397,2.2716 4.2676,3.1773 .9202.8786 2.1454,1.175 3.2298,1.7438 1.297.4963 2.4701,1.1053 3.5779,1.9477 1.0205.6739 2.0101,1.3993 2.9627,2.1661l-3.4205.3072c-.9531-.7593-1.9379-1.4802-2.9549-2.1521-1.1285-.7957-2.3404-1.3498-3.6097-1.882-1.1272-.5042-2.2513-.9772-3.2144-1.7807-1.4922-.9603-2.8413-2.1265-4.2329-3.2235-1.8338-1.4819-3.5469-3.1116-5.5024-4.4381-2.0764-1.4841-4.1714-2.9491-6.1149-4.6074-1.9349-1.7497-3.785-3.5893-5.5175-5.5408-1.69-2.0165-3.3084-4.0912-4.7693-6.2821l-4.1745-5.87c-1.2607-1.8514-2.4954-3.7201-3.8459-5.5084-1.2811-1.6235-2.4848-3.3163-3.9299-4.8035-1.5397-1.69-3.0566-3.4115-4.4022-5.2617-1.6284-2.2466-3.3436-4.437-5.1951-6.5046-1.8468-1.9748-3.879-3.7662-5.7017-5.7662-1.257-1.3979-2.4868-2.8376-3.923-4.0565-1.3883-1.0561-2.9214-1.9133-4.2023-3.1169-1.1475-1.0134-2.3653-1.915-3.6617-2.7304l3.4835-.324z" fill="#004100" filter="url(#r)"/>
   <path transform="matrix(1.6845 .29702 -.29702 1.6845 743.88 -10705)" d="m1217.3234,5913.4477c.4248.011.8501-.01 1.2748,0 1.4501.042 2.9014.061 4.3497.1445 1.2825.074 2.5933.5178 3.8398.7949 3.6116.7482 7.1813,1.6884 10.7418,2.6477 2.5653.677 4.986,1.7635 7.5216,2.5294 2.4822.8232 5.0021,1.5238 7.3771,2.6312 2.0301.9851 4.1046,1.8542 6.2067,2.6719 2.1738.845 4.2978,1.7981 6.4975,2.576 2.3291,1.0554 4.706,1.9831 7.1568,2.7143 2.7915.8737 5.6091,1.6543 8.3909,2.5603 2.6814.8005 5.43,1.341 8.183,1.8274 2.469.472 4.9862.4667 7.4807.6769 2.1611.2433 4.332.3486 6.5047.4096 1.9561.044 3.9128.046 5.8693.044h1.2101c3.5194.093 7.0856-.2476 10.5748.3136 .8501.1567 1.7012.3058 2.5545.4435l-3.4095.4824c-.8383-.1444-1.6748-.2988-2.5127-.4453-2.1035-.3123-.7909-.047 1.0876-.2632 .414-.048-.8333-.0006-1.25-.0005h-3.6689c-2.6606,0-5.3213.01-7.982,0-1.9447,0-3.8897-.01-5.834-.06-2.1709-.069-4.3386-.1905-6.4984-.4277-2.4903-.1877-4.9979-.2291-7.4577-.7135-2.7538-.5006-5.5059-1.0414-8.1821-1.8738-2.7866-.9-5.6069-1.6828-8.4028-2.5523-2.4516-.7572-4.8275-1.702-7.178-2.7278-2.1981-.7886-4.3228-1.752-6.5037-2.5853-2.1007-.8208-4.1728-1.7025-6.2006-2.692-2.3793-1.0623-4.8809-1.7809-7.354-2.5899-2.5189-.7905-4.9485-1.8376-7.5029-2.5211-3.5531-.9851-7.1257-1.9142-10.7439-2.6305l-2.7417-.5937c-.383-.069-1.5372-.085-1.1559-.1619 3.4575-.6987 2.9143.089 1.2128-.093l-3.4554-.5473z" fill="#004100" filter="url(#m)"/>
   <path transform="matrix(1.6544 .29172 -.33566 1.9036 1008.5 -11981)" d="m1129.2 5824c-0.128-0.01-0.2548 0.058-0.4245 0.1775-4.1774 2.4762-9.6078 3.3869-14.647 3.1944 6.5191 14.157 15.678 29.173 28.051 39.901 15.481 13.421 34.266 26.377 53.373 37.091h0.03c0.9418 0.089 1.554 0.062 1.3647-0.2662-4.8196-3.5885-4.2786-9.7334-2.9417-14.671 0.1505-1.2804-2.3367-1.3695-2.6686-2.7212-2.5373-3.5661 0.4831-7.7138 2.0016-10.47-3.2861 1.0616-7.8751-0.4799-7.4905-3.9635-0.4077-4.2628 1.7169-8.2199 3.3054-12.127-3.6783 2.1502-10.279 2.9931-12.282-1.4197-2.6359-5.1012-0.9402-11.285 0.091-16.357-3.4696 3.1006-10.804 2.7964-12.525-1.7155-2.373-3.6701-2.7353-8.0421-3.1235-12.216-2.9874 3.3977-6.2198 8.3572-11.857 7.8973-3.0116-0.7713-3.842-3.8733-4.8219-6.1818-4.3456 2.4946-11.621 2.1065-13.616-2.6323-0.9055-0.569-0.9239-3.4525-1.8196-3.5199z" fill="url(#p)" filter="url(#q)"/>
   <path d="m1123.4-413.73c-0.1263 0.0264-0.2765 0.28854-0.4922 0.94455-3.9039 6.8723-8.9026 16.889-18.396 16.296-9.6084-2.906-12.481-13.899-15.761-22.047-1.5177 10.223-4.3984 23.84-15.816 26.901-11.161 2.0986-23.05-4.3056-33.843 0.16565-6.3853 1.8681-12.858 3.5564-19.209 5.5142 0.7048 0.52723 1.4071 1.0446 2.112 1.5665 5.4415 1.0011 10.612 3.2718 13.173 8.4018 0.316 0.54134 0.6234 1.0709 0.9077 1.6254 16.335 11.247 32.397 20.803 47.437 28.013 29.367 14.077 82.768 17.643 126.24 17.917-0.9428-3.7865-0.8461-7.7517 0.9799-11.714 1.0339-2.3658 3.2767-5.2775-0.8581-3.1366-7.7906 2.7201-17.194-1.3939-19.716-8.8498-2.8478-7.0527-3.0038-15.022-1.2664-22.368-5.608 6.5571-17.794 9.3782-23.901 1.6475-4.6837-4.9134-5.9487-12.395-7.1987-18.583-5.6664 3.9102-10.366 13.087-18.772 10.422-10.366-4.7105-12.671-17.4-14.718-27.345-0.4861-0.71479-0.3519-5.4824-0.8987-5.369z" fill="url(#ar)"/>
   <g transform="matrix(1.1933 .21041 -.21041 1.1933 721.23 -7599.9)">
    <path d="m1262.2 5827.6a24.749 24.496 0 1 1 -49.497 0 24.749 24.496 0 1 1 49.497 0z" fill="#800000"/>
    <path d="m1262.2 5827.6a24.749 24.496 0 1 1 -49.497 0 24.749 24.496 0 1 1 49.497 0z" fill="url(#b)"/>
    <path d="m1236.3 5804.6c-3.8966 0.4148-7.99 1.0217-11.031 3.6874 0.178 14.298 15.827 25.647 29.5 21.219 1.969-0.7446 4.9542-1.1862 5.875-3.1562-0.4196-12.204-12.025-22.666-24.344-21.75z" fill="url(#c)"/>
   </g>
   <g transform="matrix(1.2662 .22327 -.21474 1.2179 696.78 -7788.4)">
    <path d="m1262.2 5827.6a24.749 24.496 0 1 1 -49.497 0 24.749 24.496 0 1 1 49.497 0z" fill="#800000"/>
    <path d="m1262.2 5827.6a24.749 24.496 0 1 1 -49.497 0 24.749 24.496 0 1 1 49.497 0z" fill="url(#b)"/>
    <path d="m1236.3 5804.6c-3.8966 0.4148-7.99 1.0217-11.031 3.6874 0.178 14.298 15.827 25.647 29.5 21.219 1.969-0.7446 4.9542-1.1862 5.875-3.1562-0.4196-12.204-12.025-22.666-24.344-21.75z" fill="url(#c)"/>
   </g>
   <g transform="matrix(1.1933 .21041 -.21041 1.1933 767.1 -7585.6)">
    <path d="m1262.2 5827.6a24.749 24.496 0 1 1 -49.497 0 24.749 24.496 0 1 1 49.497 0z" fill="#800000"/>
    <path d="m1262.2 5827.6a24.749 24.496 0 1 1 -49.497 0 24.749 24.496 0 1 1 49.497 0z" fill="url(#b)"/>
    <path d="m1236.3 5804.6c-3.8966 0.4148-7.99 1.0217-11.031 3.6874 0.178 14.298 15.827 25.647 29.5 21.219 1.969-0.7446 4.9542-1.1862 5.875-3.1562-0.4196-12.204-12.025-22.666-24.344-21.75z" fill="url(#c)"/>
   </g>
  </g>
 </g>
</svg>
